<svg width="34" height="30" viewBox="0 0 34 30" fill="none" xmlns="http://www.w3.org/2000/svg">
<path d="M2.54989 29.9993V23.9598H0.333313V21.4493H7.87396V23.9598H5.72393V29.9993H2.54989Z" fill="#2053A3"/>
<path d="M7.87384 30L10.7264 21.4497L13.9718 21.4486L16.9998 30H13.9421L12.367 24.831L10.7971 30H7.87384Z" fill="#2053A3"/>
<path d="M19.2153 29.9993V23.9598H17.0001V21.4493H24.5408V23.9598H22.3894V29.9993H19.2153Z" fill="#2053A3"/>
<path d="M24.5407 29.9993L27.3909 21.4493H30.6018L33.6667 29.9993H30.6076L29.0674 24.8321L27.4616 29.9993H24.5407Z" fill="#2053A3"/>
<path fill-rule="evenodd" clip-rule="evenodd" d="M14.1203 16.6172C9.44081 15.4686 6.06216 12.2734 6.06216 8.5299C6.06216 8.0629 6.11532 7.60302 6.21678 7.15549C8.49713 6.48814 14.48 5.49647 15.5744 6.27917C16.2937 6.73418 14.8941 12.8726 14.1203 16.6172Z" fill="#2053A3"/>
<path fill-rule="evenodd" clip-rule="evenodd" d="M28.5895 7.16774C28.6934 7.61602 28.7448 8.07665 28.7448 8.54365C28.7448 12.295 25.352 15.4947 20.6585 16.6392C19.8841 12.8919 18.4866 6.74755 19.2041 6.29291C20.2979 5.51096 26.3061 6.50151 28.5895 7.16774Z" fill="#2053A3"/>
<path fill-rule="evenodd" clip-rule="evenodd" d="M16.8687 -4.11754e-06C21.9926 0.00448985 26.374 2.35746 28.0349 5.63656C26.1232 5.31599 17.2676 3.02406 17.3659 4.91603V17.0797C17.1971 17.0857 17.0265 17.0894 16.8548 17.0894C16.6738 17.0894 16.4935 17.0857 16.3145 17.0797V4.91603C16.4129 3.02631 7.59931 5.30962 5.67615 5.63469C7.33559 2.35746 11.717 0.00448985 16.8406 -4.11754e-06H16.8687Z" fill="#2053A3"/>
</svg>
