<svg width="34" height="30" viewBox="0 0 34 30" fill="none" xmlns="http://www.w3.org/2000/svg">
<path d="M24 12C24 13.5913 23.2976 15.1174 22.0473 16.2426C20.7971 17.3679 19.1014 18 17.3333 18C15.5652 18 13.8695 17.3679 12.6192 16.2426C11.369 15.1174 10.6666 13.5913 10.6666 12C10.6666 10.4087 11.369 8.88258 12.6192 7.75736C13.8695 6.63214 15.5652 6 17.3333 6C19.1014 6 20.7971 6.63214 22.0473 7.75736C23.2976 8.88258 24 10.4087 24 12Z" fill="#748FD8"/>
<path fill-rule="evenodd" clip-rule="evenodd" d="M16.6534 29.988C7.76419 29.667 0.666687 23.079 0.666687 15C0.666687 6.7155 8.12835 0 17.3334 0C26.5384 0 34 6.7155 34 15C34 23.2845 26.5384 30 17.3334 30H17.105C16.9539 30 16.8034 29.996 16.6534 29.988ZM6.63835 24.465C6.51374 24.1429 6.47132 23.7997 6.51426 23.4609C6.55719 23.122 6.68436 22.7963 6.88634 22.5077C7.08831 22.2191 7.35991 21.9752 7.68096 21.7941C8.00201 21.6129 8.36427 21.4992 8.74085 21.4613C15.2375 20.814 19.4692 20.8725 25.9342 21.4747C26.3113 21.5101 26.6744 21.6224 26.996 21.8032C27.3176 21.9839 27.5891 22.2283 27.7898 22.5178C27.9906 22.8072 28.1153 23.1341 28.1544 23.4735C28.1936 23.8129 28.1462 24.1558 28.0159 24.4762C30.7868 21.9533 32.3385 18.5475 32.3334 15C32.3334 7.54425 25.6175 1.5 17.3334 1.5C9.04919 1.5 2.33335 7.54425 2.33335 15C2.33335 18.687 3.97585 22.029 6.63835 24.465Z" fill="#748FD8"/>
</svg>
