<svg width="31" height="30" viewBox="0 0 31 30" fill="none" xmlns="http://www.w3.org/2000/svg">
<path d="M16.4375 18.75C17.1834 18.75 17.8988 19.0463 18.4262 19.5738C18.9537 20.1012 19.25 20.8166 19.25 21.5625V22.5C19.25 26.1956 15.7625 30 9.875 30C3.9875 30 0.5 26.1956 0.5 22.5V21.5625C0.5 20.8166 0.796316 20.1012 1.32376 19.5738C1.85121 19.0463 2.56658 18.75 3.3125 18.75H16.4375ZM16.4375 20.625H3.3125C3.06386 20.625 2.8254 20.7238 2.64959 20.8996C2.47377 21.0754 2.375 21.3139 2.375 21.5625V22.5C2.375 25.1962 5.06 28.125 9.875 28.125C14.69 28.125 17.375 25.1962 17.375 22.5V21.5625C17.375 21.3139 17.2762 21.0754 17.1004 20.8996C16.9246 20.7238 16.6861 20.625 16.4375 20.625ZM9.875 6.5625C11.2425 6.5625 12.554 7.10575 13.521 8.07273C14.488 9.03971 15.0312 10.3512 15.0312 11.7188C15.0312 13.0863 14.488 14.3978 13.521 15.3648C12.554 16.3318 11.2425 16.875 9.875 16.875C8.50748 16.875 7.19596 16.3318 6.22898 15.3648C5.262 14.3978 4.71875 13.0863 4.71875 11.7188C4.71875 10.3512 5.262 9.03971 6.22898 8.07273C7.19596 7.10575 8.50748 6.5625 9.875 6.5625ZM26.75 0C27.6958 0.00017358 28.6065 0.357697 29.2998 1.00094C29.9932 1.64419 30.4178 2.52566 30.4887 3.46875L30.5 3.75V7.5C30.5003 8.44608 30.143 9.35731 29.4997 10.051C28.8564 10.7447 27.9747 11.1697 27.0312 11.2406L26.75 11.25H23.9356L21.6894 14.25C20.6956 15.5738 18.6819 15.0375 18.3575 13.545L18.3256 13.3369L18.3125 13.125V11.1281L18.1663 11.0906C17.492 10.887 16.8887 10.4977 16.4254 9.96709C15.9621 9.43652 15.6577 8.78621 15.5469 8.09062L15.5094 7.77938L15.5 7.5V3.75C15.4997 2.80392 15.857 1.89269 16.5003 1.19897C17.1436 0.505257 18.0253 0.0803312 18.9688 0.00937521L19.25 0H26.75ZM9.875 8.4375C9.4441 8.4375 9.01742 8.52237 8.61932 8.68727C8.22122 8.85217 7.8595 9.09386 7.55481 9.39856C7.25011 9.70325 7.00842 10.065 6.84352 10.4631C6.67862 10.8612 6.59375 11.2879 6.59375 11.7188C6.59375 12.1496 6.67862 12.5763 6.84352 12.9744C7.00842 13.3725 7.25011 13.7343 7.55481 14.0389C7.8595 14.3436 8.22122 14.5853 8.61932 14.7502C9.01742 14.9151 9.4441 15 9.875 15C10.7452 15 11.5798 14.6543 12.1952 14.0389C12.8105 13.4236 13.1562 12.589 13.1562 11.7188C13.1562 10.8485 12.8105 10.0139 12.1952 9.39856C11.5798 8.7832 10.7452 8.4375 9.875 8.4375ZM26.75 1.875H19.25C18.7908 1.87506 18.3475 2.04367 18.0043 2.34884C17.6611 2.65401 17.4419 3.07453 17.3881 3.53062L17.375 3.75V7.5C17.3751 7.95925 17.5437 8.40251 17.8488 8.7457C18.154 9.08889 18.5745 9.30814 19.0306 9.36188L19.25 9.375H20.1875V13.125L23 9.375H26.75C27.2092 9.37494 27.6525 9.20633 27.9957 8.90116C28.3389 8.59599 28.5581 8.17547 28.6119 7.71938L28.625 7.5V3.75C28.6249 3.29075 28.4563 2.84749 28.1512 2.5043C27.846 2.16111 27.4255 1.94186 26.9694 1.88812L26.75 1.875Z" fill="black"/>
</svg>
