<svg width="33" height="32" viewBox="0 0 33 32" fill="none" xmlns="http://www.w3.org/2000/svg">
<path d="M23.9936 11.5195H24.0056M24.0056 8.5135V4.7575M9.75262 31H5.57662C5.09212 31 4.60462 30.931 4.15912 30.7405C2.71012 30.118 1.97362 29.2945 1.63162 28.78C1.53881 28.6375 1.4932 28.4694 1.50128 28.2995C1.50936 28.1296 1.5707 27.9666 1.67662 27.8335C3.35662 25.6015 7.25062 24.2545 9.75262 24.2545M9.76012 31H13.9346C14.4206 31 14.9066 30.931 15.3521 30.7405C16.8026 30.118 17.5376 29.2945 17.8811 28.78C17.9739 28.6375 18.0195 28.4694 18.0115 28.2995C18.0034 28.1296 17.942 27.9666 17.8361 27.8335C16.1561 25.6015 12.2621 24.2545 9.76012 24.2545M31.4996 8.188C31.4996 12.157 28.1396 15.376 23.9936 15.376C23.5056 15.376 23.0216 15.331 22.5416 15.241C22.1966 15.1765 22.0256 15.145 21.9041 15.163C21.7841 15.181 21.6131 15.271 21.2741 15.454C20.3031 15.9717 19.1855 16.1456 18.1031 15.9475C18.5141 15.4405 18.7931 14.833 18.9176 14.182C18.9926 13.7845 18.8066 13.3975 18.5276 13.114C17.2249 11.8051 16.4917 10.0347 16.4876 8.188C16.4876 4.219 19.8476 1 23.9936 1C28.1396 1 31.4996 4.219 31.4996 8.188ZM13.9271 16.4335C13.9255 17.5373 13.4857 18.5954 12.7043 19.3751C11.923 20.1548 10.864 20.5923 9.76012 20.5915C9.2133 20.5923 8.67167 20.4854 8.16617 20.2768C7.66067 20.0683 7.20119 19.7622 6.81397 19.3761C6.42675 18.99 6.11937 18.5314 5.90938 18.0265C5.6994 17.5216 5.59091 16.9803 5.59012 16.4335C5.59071 15.8865 5.69905 15.3451 5.90895 14.84C6.11885 14.3349 6.4262 13.8762 6.81344 13.4899C7.20068 13.1036 7.66023 12.7974 8.16583 12.5888C8.67143 12.3802 9.21317 12.2732 9.76012 12.274C10.8642 12.2732 11.9234 12.7109 12.7049 13.491C13.4863 14.271 13.9259 15.3294 13.9271 16.4335Z" stroke="black" stroke-width="2" stroke-linecap="round" stroke-linejoin="round"/>
</svg>
