<svg width="29" height="30" viewBox="0 0 29 30" fill="none" xmlns="http://www.w3.org/2000/svg">
<path d="M14.5 0C11.5163 0 8.65483 1.18526 6.54504 3.29505C4.43526 5.40483 3.24999 8.26631 3.24999 11.25V17.2525L0.839992 23.2875C0.76451 23.477 0.736563 23.6822 0.75859 23.885C0.780617 24.0878 0.851949 24.2821 0.966361 24.451C1.08077 24.6199 1.23479 24.7583 1.41496 24.854C1.59513 24.9496 1.79599 24.9998 1.99999 25H9.49999C9.49999 27.77 11.73 30 14.5 30C17.27 30 19.5 27.77 19.5 25H27C27.204 24.9998 27.4049 24.9496 27.585 24.854C27.7652 24.7583 27.9192 24.6199 28.0336 24.451C28.148 24.2821 28.2194 24.0878 28.2414 23.885C28.2634 23.6822 28.2355 23.477 28.16 23.2875L25.75 17.25V11.25C25.75 8.26631 24.5647 5.40483 22.4549 3.29505C20.3452 1.18526 17.4837 0 14.5 0ZM17 25C17 26.39 15.89 27.5 14.5 27.5C13.11 27.5 12 26.39 12 25H17ZM5.74999 11.25C5.74999 8.92936 6.67187 6.70376 8.31281 5.06282C9.95375 3.42187 12.1793 2.5 14.5 2.5C16.8206 2.5 19.0462 3.42187 20.6872 5.06282C22.3281 6.70376 23.25 8.92936 23.25 11.25V17.495C23.2504 17.6535 23.2809 17.8104 23.34 17.9575L25.155 22.5H3.84499L5.65999 17.9575C5.71904 17.8104 5.74958 17.6535 5.74999 17.495V11.25Z" fill="black"/>
</svg>
