<svg width="18" height="21" viewBox="0 0 18 21" fill="none" xmlns="http://www.w3.org/2000/svg">
<path d="M8.89872 4.46396C12.8738 4.46396 16.0961 7.68063 16.0961 11.6486V16.8964C16.0961 17.0875 16.02 17.2709 15.8846 17.406C15.7492 17.5412 15.5656 17.6171 15.3741 17.6171H2.42332C2.23184 17.6171 2.0482 17.5412 1.9128 17.406C1.7774 17.2709 1.70133 17.0875 1.70133 16.8964V11.6486C1.70133 7.68063 4.92368 4.46396 8.89872 4.46396ZM8.26697 0.5H9.53046C9.57833 0.5 9.62425 0.518983 9.6581 0.552774C9.69195 0.586564 9.71096 0.632393 9.71096 0.68018V2.84234C9.71096 2.89013 9.69195 2.93596 9.6581 2.96975C9.62425 3.00354 9.57833 3.02252 9.53046 3.02252H8.26697C8.2191 3.02252 8.17319 3.00354 8.13934 2.96975C8.10549 2.93596 8.08647 2.89013 8.08647 2.84234V0.68018C8.08647 0.632393 8.10549 0.586564 8.13934 0.552774C8.17319 0.518983 8.2191 0.5 8.26697 0.5ZM1.34597 3.28514C1.36273 3.26838 1.38264 3.25509 1.40455 3.24603C1.42647 3.23696 1.44995 3.23229 1.47367 3.23229C1.49739 3.23229 1.52088 3.23696 1.54279 3.24603C1.56471 3.25509 1.58461 3.26838 1.60138 3.28514L3.13291 4.81396C3.16673 4.84775 3.18573 4.89356 3.18573 4.94133C3.18573 4.9891 3.16673 5.03491 3.13291 5.06869L2.23944 5.96059C2.20559 5.99435 2.1597 6.01332 2.11185 6.01332C2.064 6.01332 2.01811 5.99435 1.98426 5.96059L0.452727 4.43176C0.418903 4.39797 0.399902 4.35216 0.399902 4.30439C0.399902 4.25663 0.418903 4.21081 0.452727 4.17703L1.3462 3.28514H1.34597ZM16.4537 3.28514L17.3472 4.17703C17.3809 4.2108 17.3999 4.25657 17.3999 4.30428C17.3999 4.35199 17.3809 4.39775 17.3472 4.43153L15.8157 5.96081C15.7989 5.97756 15.779 5.99085 15.7571 5.99992C15.7352 6.00899 15.7117 6.01366 15.688 6.01366C15.6642 6.01366 15.6407 6.00899 15.6188 5.99992C15.5969 5.99085 15.577 5.97756 15.5603 5.96081L14.6668 5.06892C14.65 5.05218 14.6367 5.03231 14.6276 5.01044C14.6185 4.98857 14.6138 4.96512 14.6138 4.94144C14.6138 4.91776 14.6185 4.89432 14.6276 4.87244C14.6367 4.85057 14.65 4.8307 14.6668 4.81396L16.1985 3.28514C16.2324 3.25137 16.2783 3.2324 16.3261 3.2324C16.374 3.2324 16.4199 3.25137 16.4537 3.28514ZM1.67877 19.0586H16.1187C16.3102 19.0586 16.4938 19.1345 16.6292 19.2697C16.7646 19.4048 16.8407 19.5881 16.8407 19.7793V20.3198C16.8407 20.3676 16.8216 20.4134 16.7878 20.4472C16.7539 20.481 16.708 20.5 16.6602 20.5H1.13727C1.0894 20.5 1.04349 20.481 1.00964 20.4472C0.975787 20.4134 0.95677 20.3676 0.95677 20.3198V19.7793C0.95677 19.5881 1.03284 19.4048 1.16824 19.2697C1.30364 19.1345 1.48728 19.0586 1.67877 19.0586ZM5.01799 11.9189V17.6171H6.46198V11.9189H5.01799Z" fill="#F84E48"/>
</svg>
