<svg width="138" height="114" viewBox="0 0 138 114" fill="none" xmlns="http://www.w3.org/2000/svg">
<path opacity="0.7" d="M123.473 111.454C120.56 113.915 112.107 113.534 108.929 113.534C72.8343 113.534 35.1193 114.583 28.6811 113.534C19.1739 111.984 13.4796 109.172 5.98022 100.626C-4.81081 88.3301 -0.53129 47.025 15.0606 27.2947C17.9126 23.6856 32.9776 3.65472 63.5973 0.442383C82.1281 -1.50169 94.5258 2.98156 110.169 13.4997C143.004 35.5781 145.551 92.7996 123.473 111.454Z" fill="url(#paint0_linear_99_304)"/>
<path d="M22.1767 92.8442C23.9794 95.701 26.1756 98.2897 28.7005 100.534C28.7582 100.586 28.8175 100.637 28.8767 100.689L34.2675 97.4854C34.2277 97.4312 34.1836 97.3704 34.1365 97.3039C31.3217 93.3852 18.6097 67.3151 18.532 61.5419C18.5222 62.0197 13.9571 79.9626 22.1767 92.8442Z" fill="url(#paint1_radial_99_304)"/>
<path d="M26.6817 99.8062C26.7649 99.8436 31.7929 101.964 33.6096 101.964L33.0419 98.2171C32.1335 98.1036 30.8431 97.4321 30.7586 97.3837C29.3741 96.5749 25.2546 94.1448 21.1984 91.4982C16.8402 88.6536 12.5528 85.5609 11.8088 83.9615C11.9637 84.3297 16.7623 95.5141 26.6817 99.8062Z" fill="url(#paint2_radial_99_304)"/>
<path d="M119.041 102.008C118.951 105.385 118.385 108.732 117.361 111.951C117.338 112.026 117.313 112.1 117.288 112.174H111.018C111.024 112.107 111.031 112.033 111.038 111.951C111.456 107.145 109.067 78.2389 106.185 73.2361C106.438 73.6419 119.528 86.7353 119.041 102.008Z" fill="url(#paint3_radial_99_304)"/>
<path d="M118.571 111.951C118.518 112.026 118.464 112.101 118.408 112.174H113.704C113.739 112.111 113.781 112.036 113.829 111.951C114.606 110.549 116.906 106.355 119.041 102.008C121.335 97.3365 123.441 92.4876 123.263 90.7327C123.318 91.1283 124.906 103.195 118.571 111.951Z" fill="url(#paint4_radial_99_304)"/>
<path d="M121.829 112.865H28.9597C28.9281 112.865 28.8978 112.805 28.8755 112.698C28.8531 112.592 28.8406 112.447 28.8406 112.297C28.8406 112.146 28.8531 112.002 28.8755 111.895C28.8978 111.789 28.9281 111.729 28.9597 111.729H121.829C121.861 111.729 121.891 111.789 121.913 111.895C121.936 112.002 121.948 112.146 121.948 112.297C121.948 112.447 121.936 112.592 121.913 112.698C121.891 112.805 121.861 112.865 121.829 112.865Z" fill="#3F3D56"/>
<path d="M24.9615 26.0625H57.1798C58.7345 26.0625 60.243 26.5915 61.4572 27.5624C62.6715 28.5334 63.5192 29.8886 63.8611 31.4052L80.1405 103.613C80.318 104.401 80.3211 105.218 80.1496 106.006C79.9781 106.795 79.6361 107.537 79.1475 108.18C78.659 108.823 78.0357 109.351 77.3215 109.727C76.6072 110.104 75.8193 110.319 75.0129 110.359L41.8922 111.991C40.1187 112.078 38.374 111.518 36.9836 110.413C35.5933 109.309 34.6522 107.736 34.3362 105.989L25.1016 54.937L23.3548 45.2802L20.7771 31.0299C20.6666 30.4195 20.6923 29.7923 20.852 29.1929C21.0118 28.5936 21.3019 28.0369 21.7015 27.5625C22.1011 27.0881 22.6005 26.7077 23.164 26.4484C23.7274 26.1892 24.3412 26.0574 24.9615 26.0625Z" fill="#1A0F91"/>
<path d="M52.9384 27.619H56.6993C57.7793 27.619 58.8269 27.9884 59.6681 28.6658C60.5092 29.3433 61.0934 30.288 61.3237 31.3433L76.9496 102.962C77.0395 103.374 77.0394 103.801 76.9493 104.213C76.8592 104.626 76.6811 105.014 76.4273 105.351C76.1735 105.688 75.8499 105.967 75.4786 106.167C75.1073 106.368 74.6971 106.486 74.2759 106.514L41.2623 108.677C40.331 108.738 39.4097 108.454 38.6744 107.88C37.9391 107.305 37.4412 106.479 37.2758 105.561L23.9421 31.5356C23.8558 31.0565 23.8757 30.5643 24.0004 30.0937C24.1251 29.6231 24.3516 29.1856 24.6638 28.8121C24.9761 28.4386 25.3665 28.1382 25.8075 27.932C26.2485 27.7259 26.7294 27.619 27.2163 27.619H30.784C31.1293 27.619 31.465 27.7329 31.7391 27.9429C32.0132 28.153 32.2103 28.4475 32.3001 28.7809C32.3794 29.0753 32.5534 29.3353 32.7954 29.5208C33.0374 29.7062 33.3337 29.8067 33.6386 29.8067H50.576C51.1729 29.8067 51.7479 29.5814 52.1859 29.1758C52.6239 28.7702 52.8926 28.2142 52.9384 27.619Z" fill="#1AC6A9"/>
<path d="M69.6005 50.5764C69.706 50.6447 69.806 50.7212 69.8995 50.8052L80.8127 48.0231L81.5572 45.3904L85.6773 45.9946L84.8123 50.7835C84.7424 51.1704 84.5489 51.5242 84.2609 51.7917C83.9728 52.0593 83.6057 52.2261 83.2148 52.2673L70.4724 53.6092C70.2647 54.0465 69.9288 54.4102 69.5094 54.6519C69.09 54.8936 68.6069 55.0019 68.1245 54.9624C67.642 54.9228 67.183 54.7374 66.8085 54.4306C66.434 54.1238 66.1618 53.7103 66.0281 53.2451C65.8944 52.7799 65.9054 52.2849 66.0598 51.8261C66.2142 51.3673 66.5047 50.9664 66.8925 50.6767C67.2803 50.387 67.7471 50.2223 68.2309 50.2043C68.7146 50.1864 69.1924 50.3162 69.6005 50.5764Z" fill="#FFB6B6"/>
<path d="M61.8125 60.4507C65.7005 60.4507 68.8524 57.2988 68.8524 53.4108C68.8524 49.5228 65.7005 46.371 61.8125 46.371C57.9245 46.371 54.7727 49.5228 54.7727 53.4108C54.7727 57.2988 57.9245 60.4507 61.8125 60.4507Z" fill="#D74963"/>
<path d="M66.22 39.8988H57.4051L52.0835 13.8672C51.9468 12.5079 52.0964 11.135 52.5227 9.83706C52.9491 8.53911 53.6427 7.3449 54.5588 6.33142C55.4749 5.31793 56.5932 4.50765 57.8416 3.95282C59.0901 3.39799 60.4409 3.11092 61.8071 3.11011C63.1732 3.1093 64.5244 3.39477 65.7735 3.94812C67.0226 4.50147 68.1419 5.31042 69.0592 6.32282C69.9765 7.33522 70.6715 8.52861 71.0994 9.82605C71.5272 11.1235 71.6785 12.4962 71.5433 13.8557L66.22 39.8988Z" fill="#D74963"/>
<path d="M86.4138 48.3844L83.6024 50.8098L79.6692 54.2002L77.9319 45.3119L77.7502 44.3876L77.6072 43.6541L81.5926 36.7119L84.915 36.9027L85.1421 36.9163L85.1466 36.9663L85.1988 37.4318L85.8801 43.5587L85.896 43.7063L86.4138 48.3844Z" fill="#FFC907"/>
<path d="M68.038 109.171L65.2538 109.171L63.9292 98.4321L68.0384 98.4324L68.038 109.171Z" fill="#FFB6B6"/>
<path d="M68.7479 111.87L59.7708 111.869V111.756C59.7708 110.829 60.139 109.941 60.7942 109.285C61.4495 108.63 62.3382 108.262 63.2649 108.262H63.2651L68.748 108.262L68.7479 111.87Z" fill="#021A72"/>
<path d="M97.1058 109.398L94.3217 109.398L92.9971 98.6593L97.1063 98.6595L97.1058 109.398Z" fill="#FFB6B6"/>
<path d="M97.8157 112.097L88.8386 112.097V111.983C88.8387 111.056 89.2068 110.168 89.8621 109.512C90.5174 108.857 91.4061 108.489 92.3328 108.489H92.333L97.8159 108.489L97.8157 112.097Z" fill="#021A72"/>
<path d="M99.3309 104.669L91.8369 105.805L80.9342 68.9067L69.3548 106.032L60.9524 104.896L71.8528 61.7488V58.3424L73.3289 53.2328L73.1744 51.8498L72.1003 42.178L71.6348 37.9836L71.6046 37.7127C71.5793 37.4853 71.6395 37.2566 71.7736 37.0712C71.9076 36.8858 72.1059 36.7569 72.3297 36.7097L75.8269 35.9739H81.5428L84.9151 36.9027L85.1467 36.9663L85.2512 36.9958L85.199 37.4318L84.4087 44.0583L84.3656 44.4217L83.6025 50.8098L83.4345 52.2109C90.0201 56.9799 90.2472 61.7488 90.2472 61.7488L99.3309 104.669Z" fill="#000B5F"/>
<path d="M77.9941 33.1009C81.0745 33.1009 83.5717 30.6037 83.5717 27.5233C83.5717 24.4429 81.0745 21.9457 77.9941 21.9457C74.9137 21.9457 72.4165 24.4429 72.4165 27.5233C72.4165 30.6037 74.9137 33.1009 77.9941 33.1009Z" fill="#FFB6B6"/>
<path d="M83.8524 50.9293L72.8188 52.3722L73.025 53.9484L84.0586 52.5055L83.8524 50.9293Z" fill="#FFC907"/>
<path d="M58.0188 52.8473C58.1243 52.9156 58.2242 52.9921 58.3177 53.076L69.2309 50.294L69.9754 47.6613L74.0956 48.2655L73.2305 53.0544C73.1606 53.4413 72.9671 53.795 72.6791 54.0626C72.391 54.3301 72.024 54.497 71.633 54.5382L58.8906 55.8801C58.6829 56.3174 58.347 56.681 57.9276 56.9227C57.5082 57.1645 57.0251 57.2728 56.5427 57.2332C56.0602 57.1937 55.6012 57.0082 55.2267 56.7015C54.8523 56.3947 54.58 55.9812 54.4463 55.516C54.3126 55.0507 54.3236 54.5558 54.478 54.097C54.6324 53.6382 54.9229 53.2373 55.3107 52.9476C55.6985 52.6579 56.1653 52.4931 56.6491 52.4752C57.1328 52.4573 57.6106 52.5871 58.0188 52.8473Z" fill="#FFB6B6"/>
<path d="M74.805 38.1313L72.8748 36.6552C72.3529 36.4572 71.6377 37.0197 71.5122 37.5636L68.7871 48.691L74.4644 52.7787L75.2592 51.5297L74.805 38.1313Z" fill="#FFC907"/>
<g opacity="0.2">
<path d="M85.8803 43.5587C85.3985 43.75 84.9074 43.9167 84.4088 44.0583C84.2498 44.106 84.0863 44.1514 83.9251 44.1946C82.8622 44.4895 81.7701 44.6661 80.6685 44.7214C80.1943 44.7415 79.7193 44.7286 79.247 44.6828C78.7399 44.6323 78.2388 44.5334 77.7505 44.3876C77.7345 44.3831 77.7163 44.3785 77.7005 44.374C76.685 44.0857 75.7541 43.5567 74.9867 42.832C74.8152 42.6651 74.6551 42.4868 74.5075 42.2984C74.0835 41.779 73.7724 41.1769 73.5941 40.5306C73.4158 39.8843 73.3742 39.2079 73.472 38.5445C73.491 38.4243 73.5168 38.3053 73.5493 38.188C73.6348 37.8684 73.748 37.5569 73.8876 37.2569C73.9489 37.1161 74.0171 36.9776 74.0897 36.8414L76.6558 35.9739H81.5428L84.9152 36.9027L85.1423 36.9163L85.1468 36.9663L85.2513 36.9958L85.199 37.4318L85.8803 43.5587Z" fill="black"/>
</g>
<path d="M73.7201 22.9056C72.677 22.7777 71.5323 22.8682 70.7192 23.534C69.9062 24.1999 69.6438 25.5842 70.4136 26.2996C71.0951 26.933 72.1607 26.7841 73.0734 26.9642C73.8598 27.1404 74.5642 27.5754 75.0741 28.1994C75.5839 28.8234 75.8697 29.6004 75.8857 30.4061C75.8721 32.7166 73.6547 34.4663 73.2564 36.7422C72.9846 38.2954 73.6396 39.9301 74.7722 41.0273C75.9048 42.1245 77.4617 42.7175 79.0304 42.8781C80.5991 43.0387 82.1853 42.7934 83.7098 42.3903C85.2407 41.9856 86.7478 41.4115 88.0323 40.4855C89.3168 39.5595 90.3698 38.2542 90.7822 36.7254C91.1947 35.1966 90.8986 33.4437 89.8358 32.2699C88.6188 30.9257 86.5942 30.4635 85.5415 28.9871C84.3614 27.3321 84.7981 24.9753 83.843 23.181C83.2054 21.983 81.998 21.166 80.711 20.7355C79.424 20.3051 78.0497 20.2201 76.6933 20.1785C75.9803 20.1565 75.2455 20.1492 74.5812 20.4092C73.917 20.6691 73.3331 21.2615 73.2986 21.974C73.2642 22.6864 73.7201 22.9056 73.7201 22.9056Z" fill="#2F2E41"/>
<defs>
<linearGradient id="paint0_linear_99_304" x1="153.482" y1="148.692" x2="58.4866" y2="1.69066" gradientUnits="userSpaceOnUse">
<stop stop-color="#DAE3FE"/>
<stop offset="1" stop-color="#E9EFFD"/>
</linearGradient>
<radialGradient id="paint1_radial_99_304" cx="0" cy="0" r="1" gradientUnits="userSpaceOnUse" gradientTransform="translate(34.2675 97.7257) rotate(-122.419) scale(25.4467 34.4458)">
<stop stop-color="#098E67"/>
<stop offset="1" stop-color="#4DDAB1"/>
</radialGradient>
<radialGradient id="paint2_radial_99_304" cx="0" cy="0" r="1" gradientUnits="userSpaceOnUse" gradientTransform="translate(33.6096 100.602) rotate(-150.536) scale(20.0835 25.7262)">
<stop stop-color="#098E67"/>
<stop offset="1" stop-color="#4DDAB1"/>
</radialGradient>
<radialGradient id="paint3_radial_99_304" cx="0" cy="0" r="1" gradientUnits="userSpaceOnUse" gradientTransform="translate(113.773 111.615) rotate(-98.73) scale(30.6721 16.8865)">
<stop stop-color="#098E67"/>
<stop offset="0.0991642" stop-color="#0B916A"/>
<stop offset="0.207576" stop-color="#109770"/>
<stop offset="0.334258" stop-color="#169D76"/>
<stop offset="0.492284" stop-color="#1FA780"/>
<stop offset="0.647421" stop-color="#2AB38B"/>
<stop offset="0.849015" stop-color="#39C49C"/>
<stop offset="1" stop-color="#4DDAB1"/>
</radialGradient>
<radialGradient id="paint4_radial_99_304" cx="0" cy="0" r="1" gradientUnits="userSpaceOnUse" gradientTransform="translate(116.498 111.729) rotate(-70.8602) scale(20.4323 15.201)">
<stop stop-color="#098E67"/>
<stop offset="0.0991642" stop-color="#0B916A"/>
<stop offset="0.207576" stop-color="#109770"/>
<stop offset="0.334258" stop-color="#169D76"/>
<stop offset="0.492284" stop-color="#1FA780"/>
<stop offset="0.647421" stop-color="#2AB38B"/>
<stop offset="0.849015" stop-color="#39C49C"/>
<stop offset="1" stop-color="#4DDAB1"/>
</radialGradient>
</defs>
</svg>
