<svg width="124" height="115" viewBox="0 0 124 115" fill="none" xmlns="http://www.w3.org/2000/svg">
<path opacity="0.7" d="M110.842 91.8629C108.657 94.1631 106.589 95.6464 104.956 96.8184C85.7563 110.594 63.0381 106.579 58.2098 105.598C51.0799 104.15 37.2981 101.351 27.3341 89.6333C12.2593 71.9057 14.6067 43.9764 26.2997 25.5399C28.4385 22.1676 39.7364 3.45021 62.6994 0.448536C76.5964 -1.36804 92.7957 2.2958 104.527 12.1242C129.152 32.7547 127.399 74.4323 110.842 91.8629Z" fill="url(#paint0_linear_98_243)"/>
<path d="M41.8693 104.038C47.7946 94.9136 53.2471 74.6296 27.6543 66.487C21.7022 75.5411 16.2124 95.7271 41.8693 104.038Z" fill="url(#paint1_radial_98_243)"/>
<path d="M27.5998 66.6786L41.7347 104.019C37.4541 102.644 29.0174 99.2499 24.5974 91.1798C20.7583 84.1703 23.1522 73.4328 27.5998 66.6786Z" fill="#247E64" fill-opacity="0.34"/>
<g filter="url(#filter0_d_98_243)">
<path d="M41.4158 104.115C39.1411 93.5202 28.6024 75.3996 4.6453 87.6786C6.85127 98.2433 17.2937 116.321 41.4158 104.115Z" fill="url(#paint2_radial_98_243)"/>
<path d="M4.74293 87.8518L41.3072 104.197C37.2906 106.241 28.8889 109.789 20.0173 107.218C12.3116 104.984 6.38323 95.7381 4.74293 87.8518Z" fill="#247E64" fill-opacity="0.34"/>
</g>
<path d="M40.5874 5.79709C40.2288 22.7267 39.0652 81.1226 39.6207 101.816C39.6796 104.009 41.1818 105.768 43.0558 105.84C52.3242 106.195 86.3019 107.094 101.462 106.35C104.62 106.195 107.131 103.203 107.196 99.5067C107.511 81.7371 108.206 31.7579 106.554 8.86231C106.356 6.11908 104.516 3.93449 102.174 3.66055C92.0804 2.4792 57.9566 -0.408265 44.8592 0.585958C42.497 0.765356 40.6462 3.02887 40.5874 5.79709Z" fill="url(#paint3_linear_98_243)"/>
<path d="M44.7232 10.9913C44.2244 24.6558 42.6507 70.1147 43.1501 86.9245C43.2231 89.3814 44.8785 91.3681 46.9765 91.5117C55.6141 92.1031 85.0841 93.4069 97.7535 92.2201C100.035 92.0064 101.825 89.848 101.948 87.1744C102.59 73.2338 104.434 30.9052 103.955 14.2838C103.879 11.6323 102.123 9.46673 99.8641 9.2296C90.5193 8.24795 59.2043 5.91265 48.4381 6.59976C46.417 6.72872 44.8096 8.62563 44.7232 10.9913Z" fill="#1AC6A9"/>
<path d="M66.3579 3.9348C66.3579 4.45429 66.704 4.88269 67.1475 4.90985C69.3367 5.04401 75.5035 5.4235 78.2596 5.61054C78.803 5.64743 79.2296 5.07594 79.1264 4.45082L79.1088 4.34402C79.0385 3.91739 78.7361 3.5963 78.3661 3.55664C76.5032 3.3569 70.8819 2.80314 67.1573 2.95872C66.7098 2.97734 66.3579 3.41116 66.3579 3.9348Z" fill="#7D97F4"/>
<path d="M50.5328 89.5068C48.6608 89.4492 47.1731 87.9151 47.1731 86.0423V55.4364C47.1731 53.4754 48.7985 51.9049 50.7584 51.9723L96.2767 52.2423C97.9877 52.2525 99.3694 53.6424 99.3693 55.3534L99.3694 86.3532C99.3694 88.0949 97.9575 89.5068 96.2159 89.5068L50.5328 89.5068Z" fill="white" fill-opacity="0.46"/>
<path d="M99.3691 47.2003C99.3691 48.7465 98.1018 49.9925 96.5558 49.9664L49.8491 49.1754C48.3562 49.1224 47.1733 47.8969 47.1733 46.4031V14.0323C47.1733 12.464 48.4723 11.2076 50.0398 11.2597L96.6876 12.8131C98.183 12.8629 99.3694 14.0895 99.3694 15.5856L99.3691 47.2003Z" fill="white" fill-opacity="0.46"/>
<path opacity="0.77" d="M95.8841 19.817H72.4928C72.3255 19.817 72.1899 19.6814 72.1899 19.5141V17.9115C72.1899 17.7442 72.3255 17.6086 72.4928 17.6086H95.8841C96.0514 17.6086 96.187 17.7442 96.187 17.9115V19.5141C96.1869 19.6814 96.0514 19.817 95.8841 19.817Z" fill="white"/>
<path opacity="0.77" d="M95.8841 23.5278H72.4928C72.3255 23.5278 72.1899 23.3922 72.1899 23.225V21.6223C72.1899 21.4551 72.3255 21.3195 72.4928 21.3195H95.8841C96.0514 21.3195 96.187 21.455 96.187 21.6223V23.225C96.1869 23.3922 96.0514 23.5278 95.8841 23.5278Z" fill="white"/>
<path d="M93.8396 86.3899H52.9713C51.6242 86.3899 50.5367 85.3645 50.4956 84.0554L49.6416 56.8721C49.6213 56.2285 49.8603 55.6161 50.3143 55.1475C50.7873 54.6594 51.4277 54.3906 52.1173 54.3906H93.8396C95.2053 54.3906 96.3165 55.4708 96.3165 56.7986V83.9819C96.3165 85.3097 95.2053 86.3899 93.8396 86.3899ZM52.1174 54.7813C51.5343 54.7813 50.9937 55.0079 50.5948 55.4194C50.215 55.8114 50.0152 56.3229 50.0319 56.8599L50.886 84.0433C50.9205 85.1401 51.8364 85.9994 52.9713 85.9994H93.8396C94.99 85.9994 95.9259 85.0944 95.9259 83.982V56.7987C95.9259 55.6863 94.99 54.7813 93.8396 54.7813L52.1174 54.7813Z" fill="white"/>
<path d="M61.724 54.4128L61.6001 86.1929L61.9907 86.1944L62.1147 54.4143L61.724 54.4128Z" fill="white"/>
<path d="M85.7543 54.4127L85.6304 86.1927L86.021 86.1943L86.1449 54.4142L85.7543 54.4127Z" fill="white"/>
<path d="M61.9181 61.2278L61.9155 61.6184L96.1205 61.8407L96.1231 61.4501L61.9181 61.2278Z" fill="white"/>
<path d="M96.1177 71.1002H61.8225V71.4908H96.1177V71.1002Z" fill="white"/>
<path d="M96.1666 78.8336H61.8713V79.2242H96.1666V78.8336Z" fill="white"/>
<path d="M94.1059 35.4618H52.1336C50.949 35.4618 49.9854 34.4981 49.9854 33.3135V29.5418C49.9854 28.3572 50.949 27.3936 52.1336 27.3936H94.1059C95.2905 27.3936 96.2541 28.3572 96.2541 29.5418V33.3135C96.2542 34.4981 95.2905 35.4618 94.1059 35.4618ZM52.1336 27.7842C51.1644 27.7842 50.376 28.5726 50.376 29.5418V33.3135C50.376 34.2827 51.1644 35.0712 52.1336 35.0712H94.1059C95.0751 35.0712 95.8635 34.2827 95.8635 33.3135V29.5418C95.8635 28.5726 95.0751 27.7842 94.1059 27.7842H52.1336Z" fill="white"/>
<path d="M94.1059 45.7688H52.1336C50.949 45.7688 49.9854 44.8051 49.9854 43.6206V39.8489C49.9854 38.6644 50.949 37.7007 52.1336 37.7007H94.1059C95.2905 37.7007 96.2541 38.6644 96.2541 39.8489V43.6206C96.2542 44.8051 95.2905 45.7688 94.1059 45.7688ZM52.1336 38.0913C51.1644 38.0913 50.376 38.8798 50.376 39.849V43.6206C50.376 44.5898 51.1644 45.3783 52.1336 45.3783H94.1059C95.0751 45.3783 95.8635 44.5898 95.8635 43.6206V39.849C95.8635 38.8798 95.0751 38.0913 94.1059 38.0913H52.1336Z" fill="white"/>
<path opacity="0.9" d="M74.6508 27.8617C83.836 27.8617 91.8451 35.5907 91.8451 44.5115C91.8451 53.2815 84.0165 60.1833 74.6508 60.1833C72.6476 60.1847 70.6569 59.8617 68.7532 59.2264C67.9554 60.015 67.682 60.2832 65.9883 61.9481C64.7675 62.8875 63.619 63.2065 62.5925 62.6141C61.5574 62.0183 61.2462 60.858 61.4576 59.3298L62.1454 55.2655C59.1588 52.4017 57.4565 48.6161 57.4565 44.5115C57.4565 35.5907 65.4639 27.8617 74.6508 27.8617Z" fill="white"/>
<path opacity="0.25" d="M74.4355 40.4525L74.4355 49.9313" stroke="#828282" stroke-width="3" stroke-linecap="round"/>
<circle opacity="0.25" cx="74.3391" cy="35.9525" r="1.5" fill="#828282"/>
<path d="M102.724 41.1862C102.499 39.7715 100.277 41.1978 99.7078 41.546C98.2692 42.4252 96.9017 43.1599 95.151 43.216C94.068 43.2507 92.8758 42.9174 92.173 42.0269C89.6417 38.8194 91.4592 36.2439 92.7599 34.2713C93.2232 33.7793 93.2822 33.0057 93.0066 32.5543C92.6867 32.0302 92.8506 31.4288 92.8506 31.4288C92.8506 31.4288 92.0433 31.8983 92.1954 32.4973C92.2484 32.7067 92.192 32.8689 92.0972 32.9929C92.0577 32.9533 92.0164 32.9135 91.9725 32.8729C91.0984 32.0672 91.0803 34.1293 91.0803 34.1293C91.0803 34.1293 86.5585 38.4944 89.3867 43.5335C90.7866 46.0279 92.57 46.9477 94.0177 47.2426C94.7107 47.4451 95.4377 47.4391 96.1639 47.2876C96.4461 47.2409 96.6096 47.1899 96.6096 47.1899L96.6212 47.1742C99.8626 46.2278 102.94 42.543 102.724 41.1862Z" fill="url(#paint4_linear_98_243)"/>
<path d="M93.0987 38.7033C93.374 38.5556 93.5594 38.2367 93.7028 37.9823C94.0352 37.3929 94.43 36.8504 94.8133 36.2936C95.8064 34.8507 96.8406 33.4318 97.7336 31.9226C97.9264 31.5969 98.1818 31.3146 98.3741 30.9905C98.8622 30.1679 98.532 29.5864 97.8264 28.8379C97.2295 28.2048 96.6068 27.4753 95.7886 27.1031C95.4664 26.9565 95.0926 26.9047 94.8631 27.1513C93.9364 28.147 88.8338 35.3646 90.1303 36.5898C90.5682 37.0035 90.9942 37.4261 91.4196 37.8511C91.7222 38.1532 92.0952 38.6011 92.5174 38.7409C92.7479 38.8172 92.9385 38.7892 93.0987 38.7033Z" fill="#304BAC"/>
<path d="M92.5282 38.2958C92.8035 38.1481 92.9888 37.8292 93.1322 37.5749C93.4647 36.9854 93.8594 36.443 94.2428 35.8861C95.2358 34.4432 96.2701 33.0243 97.1632 31.5151C97.3559 31.1894 97.6113 30.9071 97.8037 30.583C98.2917 29.7604 97.9615 29.1789 97.2559 28.4304C96.659 27.7973 96.0363 27.0679 95.2181 26.6956C94.8959 26.549 94.5221 26.4972 94.2926 26.7438C93.3659 27.7395 88.2632 34.9572 89.5598 36.1823C89.9977 36.5961 90.4236 37.0186 90.8491 37.4436C91.1516 37.7458 91.5247 38.1936 91.9469 38.3334C92.1774 38.4097 92.368 38.3817 92.5282 38.2958Z" fill="#3F65EA"/>
<path d="M89.9642 33.1183C89.9642 33.1183 89.83 32.7546 90.3721 31.5423C90.9144 30.3299 91.1598 29.5363 91.9381 29.3502C92.7164 29.1641 93.394 29.6159 93.0277 30.1286C92.6614 30.6413 91.8756 31.5065 91.4275 32.2962C90.9795 33.086 89.5563 34.6943 89.9642 33.1183Z" fill="url(#paint5_linear_98_243)"/>
<path d="M96.4785 30.2479C96.4785 30.2479 94.6847 25.8526 101.451 26.7387C108.217 27.6249 106.572 30.1793 107.107 32.1755C107.642 34.1717 110.481 36.4338 118.38 39.5137C126.279 42.5935 123.937 50.9902 120.389 53.7771C116.841 56.564 114.906 54.7116 114.081 59.5217C113.255 64.3319 109.963 68.2383 105.856 64.1608C101.749 60.0832 97.0804 55.2615 98.386 48.939C99.6916 42.6165 98.213 43.8125 95.6644 40.9121C93.1157 38.0116 98.5179 35.204 96.4785 30.2479Z" fill="url(#paint6_linear_98_243)"/>
<path d="M98.0351 41.5985C99.1329 41.2694 102.329 40.6617 105.37 43.4676C105.886 43.9435 106.096 44.6666 105.912 45.3438C105.096 48.3503 103.195 57.1083 105.084 60.9517C105.084 60.9517 101.501 64.7465 97.8689 61.7884C97.8689 61.7884 96.2392 54.6858 94.1047 51.5677C92.631 49.415 96.4545 43.484 97.422 42.0512C97.5684 41.8342 97.7843 41.6736 98.0351 41.5985Z" fill="#000B5F"/>
<path d="M101.066 35.6252C101.066 35.6252 102.69 40.2178 102.812 42.2439C102.812 42.2439 101.017 43.0599 99.3266 41.6827C99.3266 41.6827 99.1492 37.0954 98.8928 36.2741L101.066 35.6252Z" fill="url(#paint7_linear_98_243)"/>
<path d="M93.6287 76.701C93.6412 77.0235 93.0751 79.5811 92.7669 80.9453C92.6429 81.4942 92.7293 82.0687 93.0088 82.5571L103.679 100.516C103.808 100.733 103.902 100.968 103.959 101.214C104.155 102.057 104.56 104.122 104.349 106.001L103.797 107.148L106.184 106.606L106.703 100.195L106.027 99.7827C105.444 99.4267 104.989 98.8946 104.729 98.2622C103.764 95.9185 101.368 89.9527 100.75 87.0454C100.048 83.7411 96.3791 81.0573 96.3791 81.0573L97.0237 79.5333L93.6287 76.701Z" fill="url(#paint8_linear_98_243)"/>
<path d="M108.837 104.4C108.837 104.4 107.548 102.356 107.396 101.56C107.244 100.765 106.822 99.3597 106.027 99.7827C106.027 99.7827 105.653 103.647 105.782 105.157C105.911 106.668 104.075 106.619 104.075 106.619C104.075 106.619 103.569 106.69 103.198 107.061C102.942 107.317 103.125 107.76 103.486 107.784C104.087 107.822 105.042 107.833 106.044 107.639C106.394 107.571 106.654 107.273 106.675 106.917L106.939 102.469L108.566 104.522L108.837 104.4Z" fill="#021A72"/>
<path d="M100.003 79.5617C100.003 79.5617 100.379 95.6255 100.43 97.9069C100.481 100.188 100.07 105.244 97.7827 106.756L98.778 107.492C98.778 107.492 100.022 106.435 101.237 104.401C102.602 102.115 103.014 101.698 103.014 101.698L102.562 100.77C102.363 100.364 102.305 99.9048 102.396 99.4622C102.89 97.0701 104.539 89.1137 104.988 87.4002C105.519 85.3776 105.557 82.6766 103.71 80.4157C101.863 78.1548 100.003 79.5617 100.003 79.5617Z" fill="url(#paint9_linear_98_243)"/>
<path d="M102.115 108.216C102.186 108.217 102.246 108.166 102.256 108.096C102.332 107.56 102.649 105.413 102.909 104.857C103.206 104.221 104.176 101.541 102.908 101.313C102.908 101.313 99.7564 105.918 99.1515 106.539C98.5465 107.159 97.783 106.756 97.783 106.756C97.783 106.756 97.1935 106.93 96.749 107.498C96.5375 107.768 96.7345 108.165 97.0778 108.168L99.2006 108.189C99.8171 108.194 100.372 107.82 100.601 107.248C100.974 106.314 101.616 104.945 102.364 104.338L101.976 108.06C101.967 108.143 102.032 108.216 102.115 108.216Z" fill="#021A72"/>
<path d="M97.3662 60.0564C97.3662 60.0564 97.8446 61.5811 97.1097 64.0924L92.5509 80.012C92.4793 80.2621 92.6143 80.5239 92.8592 80.6118C94.2228 81.1012 98.7055 82.4845 104.825 82.0627C105.133 82.0414 105.391 81.8233 105.458 81.5218C105.861 79.7069 107.237 73.5147 107.52 72.2424C108.6 67.3944 109.805 62.1662 104.503 59.0048C102.06 60.0513 99.7811 60.6682 97.3662 60.0564Z" fill="#FFC907"/>
<path opacity="0.8" d="M103.448 28.8351C104.096 28.9728 104.721 29.2801 105.201 29.7607C105.436 30.0055 105.619 30.3003 105.739 30.62L105.818 30.8639L105.864 31.1161C105.896 31.286 105.912 31.4428 105.939 31.6062C106.176 32.8942 106.742 34.1238 107.583 35.1269C107.998 35.6328 108.48 36.0829 109.016 36.4598C109.548 36.8427 110.142 37.1237 110.741 37.4102C111.34 37.6939 111.947 37.9592 112.563 38.2028C113.177 38.4515 113.801 38.6773 114.44 38.8559C113.139 38.5794 111.89 38.0949 110.67 37.5673C110.061 37.3064 109.452 37.0116 108.898 36.627C108.345 36.2451 107.842 35.7872 107.41 35.2699C106.56 34.226 105.977 32.9632 105.77 31.6335C105.747 31.4687 105.735 31.2942 105.709 31.1372L105.674 30.8982L105.606 30.6667C105.502 30.3622 105.337 30.0785 105.121 29.8352C104.686 29.3476 104.082 29.0206 103.448 28.8351Z" fill="white"/>
<path opacity="0.8" d="M120.626 42.7632C121.166 43.5569 121.547 44.4569 121.793 45.3906C122.037 46.3261 122.107 47.3106 121.989 48.2767C121.847 49.2393 121.505 50.1728 120.976 50.9863C120.836 51.1839 120.706 51.3881 120.548 51.5716C120.471 51.6647 120.398 51.7613 120.318 51.8513L120.071 52.1158C119.911 52.2957 119.721 52.4461 119.547 52.6118C119.367 52.7701 119.174 52.9141 118.986 53.0625C119.7 52.4234 120.338 51.7038 120.83 50.8949C121.061 50.4826 121.284 50.0651 121.436 49.6177C121.592 49.1728 121.703 48.7132 121.767 48.2465C121.899 47.3121 121.829 46.3559 121.626 45.4307C121.526 44.967 121.387 44.511 121.219 44.0655C121.056 43.6179 120.857 43.1825 120.626 42.7632Z" fill="white"/>
<path d="M98.8111 29.3634C98.8111 29.3634 94.5644 35.3065 97.103 37.0327C99.6415 38.759 102.665 34.5355 102.665 34.5355C102.665 34.5355 103.65 31.2826 102.62 30.1792C101.589 29.0756 98.8111 29.3634 98.8111 29.3634Z" fill="url(#paint10_linear_98_243)"/>
<path d="M104.082 29.3053C103.278 27.3701 100.777 27.9432 100.777 27.9432C100.777 27.9432 98.8257 28.4055 98.5522 29.2882C98.4292 29.6853 98.9769 30.0694 99.6942 30.3755C101.292 31.0573 102.453 32.4934 102.781 34.1989L102.857 34.5915C102.857 34.5915 104.886 31.2406 104.082 29.3053Z" fill="#2F2E41"/>
<path d="M101.841 34.0982C101.841 34.0982 103.494 32.1839 104.152 33.4319C104.809 34.6799 102.664 35.6168 101.921 35.0041L101.841 34.0982Z" fill="url(#paint11_linear_98_243)"/>
<path d="M105.596 43.6595C105.596 43.6595 120.204 58.1203 99.0186 52.3479C99.0186 52.3479 98.7771 50.52 99.0924 50.5515C105.962 51.2368 108.836 52.8097 103.251 47.3945C103.054 47.203 103.115 46.4804 103.242 46.2364C103.628 45.4936 104.513 44.0184 105.596 43.6595Z" fill="url(#paint12_linear_98_243)"/>
<path d="M100.388 55.8763L96.8526 43.5302C96.8125 43.3901 96.693 43.2879 96.5481 43.2709C95.9076 43.1962 94.0516 42.9864 91.9086 42.8052C89.3273 42.5868 86.3297 42.4099 84.5384 42.5604C84.2837 42.5818 84.1298 42.8511 84.2431 43.0803C85.2617 45.1411 89.4518 53.524 91.55 56.2702C91.6195 56.3612 91.727 56.4144 91.8415 56.4133L100.044 56.337C100.283 56.3348 100.454 56.1058 100.388 55.8763Z" fill="#3F65EA"/>
<path d="M91.542 41.7348L88.9788 41.3078C88.8423 41.285 88.7305 41.4155 88.7739 41.5469L89.0276 42.3157C89.0497 42.3827 89.1081 42.4311 89.178 42.4404L91.6445 42.7699C91.7721 42.787 91.8773 42.671 91.848 42.5456L91.6909 41.8744C91.674 41.8021 91.6153 41.7471 91.542 41.7348Z" fill="#91B3FA"/>
<path d="M93.4611 43.9048L93.2499 42.8049C93.2288 42.6946 93.1377 42.6113 93.0259 42.5999L87.8489 42.0746C87.6747 42.0569 87.5351 42.2166 87.576 42.3869L87.9052 43.7574C87.9316 43.8671 88.027 43.9463 88.1396 43.952L93.1986 44.2066C93.3633 44.215 93.4921 44.0667 93.4611 43.9048Z" fill="#7D97F4"/>
<path d="M99.534 52.8935C99.534 52.8935 100.026 50.8685 99.8278 50.1501C99.6291 49.4316 99.2442 48.5079 97.9613 48.7132C96.6784 48.9184 95.165 49.4589 95.165 49.4589C95.165 49.4589 95.2415 50.3947 96.2165 50.0928L95.6119 50.5606C95.6119 50.5606 95.6983 51.3099 96.5219 50.9096L95.9595 51.5301C95.9595 51.5301 96.3132 52.1455 96.9192 51.7507C97.5251 51.356 97.8156 53.1374 99.534 52.8935Z" fill="url(#paint13_linear_98_243)"/>
<defs>
<filter id="filter0_d_98_243" x="0.645264" y="78.5659" width="44.7705" height="32.6279" filterUnits="userSpaceOnUse" color-interpolation-filters="sRGB">
<feFlood flood-opacity="0" result="BackgroundImageFix"/>
<feColorMatrix in="SourceAlpha" type="matrix" values="0 0 0 0 0 0 0 0 0 0 0 0 0 0 0 0 0 0 127 0" result="hardAlpha"/>
<feOffset dy="-1"/>
<feGaussianBlur stdDeviation="2"/>
<feComposite in2="hardAlpha" operator="out"/>
<feColorMatrix type="matrix" values="0 0 0 0 0 0 0 0 0 0 0 0 0 0 0 0 0 0 0.1 0"/>
<feBlend mode="normal" in2="BackgroundImageFix" result="effect1_dropShadow_98_243"/>
<feBlend mode="normal" in="SourceGraphic" in2="effect1_dropShadow_98_243" result="shape"/>
</filter>
<linearGradient id="paint0_linear_98_243" x1="137.01" y1="138.451" x2="41.8892" y2="20.3169" gradientUnits="userSpaceOnUse">
<stop stop-color="#DAE3FE"/>
<stop offset="1" stop-color="#E9EFFD"/>
</linearGradient>
<radialGradient id="paint1_radial_98_243" cx="0" cy="0" r="1" gradientUnits="userSpaceOnUse" gradientTransform="translate(38.1614 100.688) rotate(-108.564) scale(38.9463 37.8223)">
<stop stop-color="#098E67"/>
<stop offset="1" stop-color="#4DDAB1"/>
</radialGradient>
<radialGradient id="paint2_radial_98_243" cx="0" cy="0" r="1" gradientUnits="userSpaceOnUse" gradientTransform="translate(36.4035 104.367) rotate(-153.758) scale(39.0586 37.7136)">
<stop stop-color="#098E67"/>
<stop offset="1" stop-color="#4DDAB1"/>
</radialGradient>
<linearGradient id="paint3_linear_98_243" x1="39.4729" y1="53.509" x2="107.613" y2="53.509" gradientUnits="userSpaceOnUse">
<stop stop-color="#09005D"/>
<stop offset="1" stop-color="#1A0F91"/>
</linearGradient>
<linearGradient id="paint4_linear_98_243" x1="105.483" y1="36.3615" x2="88.006" y2="41.1532" gradientUnits="userSpaceOnUse">
<stop stop-color="#FEBBBA"/>
<stop offset="1" stop-color="#FF928E"/>
</linearGradient>
<linearGradient id="paint5_linear_98_243" x1="94.5761" y1="30.5852" x2="89.3036" y2="32.0308" gradientUnits="userSpaceOnUse">
<stop stop-color="#FEBBBA"/>
<stop offset="1" stop-color="#FF928E"/>
</linearGradient>
<linearGradient id="paint6_linear_98_243" x1="97.005" y1="32.5099" x2="129.242" y2="72.2603" gradientUnits="userSpaceOnUse">
<stop stop-color="#2F2E41"/>
<stop offset="1" stop-color="#6B6A82"/>
</linearGradient>
<linearGradient id="paint7_linear_98_243" x1="98.4833" y1="44.5203" x2="101.07" y2="38.7753" gradientUnits="userSpaceOnUse">
<stop stop-color="#FEBBBA"/>
<stop offset="1" stop-color="#FF928E"/>
</linearGradient>
<linearGradient id="paint8_linear_98_243" x1="113" y1="116.064" x2="93.7263" y2="81.2765" gradientUnits="userSpaceOnUse">
<stop stop-color="#FEBBBA"/>
<stop offset="1" stop-color="#FF928E"/>
</linearGradient>
<linearGradient id="paint9_linear_98_243" x1="91.0288" y1="90.256" x2="120.255" y2="99.9086" gradientUnits="userSpaceOnUse">
<stop stop-color="#FEBBBA"/>
<stop offset="1" stop-color="#FF928E"/>
</linearGradient>
<linearGradient id="paint10_linear_98_243" x1="98.3503" y1="30.5587" x2="103.6" y2="41.9247" gradientUnits="userSpaceOnUse">
<stop stop-color="#FEBBBA"/>
<stop offset="1" stop-color="#FF928E"/>
</linearGradient>
<linearGradient id="paint11_linear_98_243" x1="100.82" y1="29.4178" x2="106.07" y2="40.7836" gradientUnits="userSpaceOnUse">
<stop stop-color="#FEBBBA"/>
<stop offset="1" stop-color="#FF928E"/>
</linearGradient>
<linearGradient id="paint12_linear_98_243" x1="121.999" y1="56.2417" x2="96.3562" y2="45.5142" gradientUnits="userSpaceOnUse">
<stop stop-color="#FEBBBA"/>
<stop offset="1" stop-color="#FF928E"/>
</linearGradient>
<linearGradient id="paint13_linear_98_243" x1="99.875" y1="50.8003" x2="95.1651" y2="50.8003" gradientUnits="userSpaceOnUse">
<stop stop-color="#FEBBBA"/>
<stop offset="1" stop-color="#FF928E"/>
</linearGradient>
</defs>
</svg>
