<svg width="126" height="31" viewBox="0 0 126 31" fill="none" xmlns="http://www.w3.org/2000/svg">
<path d="M2.3274 28.5507V22.5113H0V20.0008H7.91768V22.5113H5.66014V28.5507H2.3274Z" fill="#486AAE"/>
<path d="M7.9176 28.5515L10.9128 20.0011L14.3205 20L17.4999 28.5515H14.2893L12.6355 23.3824L10.987 28.5515H7.9176Z" fill="#486AAE"/>
<path d="M19.8262 28.5507V22.5113H17.5002V20.0008H25.4179V22.5113H23.159V28.5507H19.8262Z" fill="#486AAE"/>
<path d="M25.4177 28.5507L28.4105 20.0008H31.7819L35 28.5507H31.788L30.1707 23.3836L28.4846 28.5507H25.4177Z" fill="#486AAE"/>
<path d="M46.6367 25.2871H47.7617C47.7031 25.8262 47.5488 26.3086 47.2988 26.7344C47.0488 27.1602 46.6953 27.498 46.2383 27.748C45.7812 27.9941 45.2109 28.1172 44.5273 28.1172C44.0273 28.1172 43.5723 28.0234 43.1621 27.8359C42.7559 27.6484 42.4062 27.3828 42.1133 27.0391C41.8203 26.6914 41.5938 26.2754 41.4336 25.791C41.2773 25.3027 41.1992 24.7598 41.1992 24.1621V23.3125C41.1992 22.7148 41.2773 22.1738 41.4336 21.6895C41.5938 21.2012 41.8223 20.7832 42.1191 20.4355C42.4199 20.0879 42.7812 19.8203 43.2031 19.6328C43.625 19.4453 44.0996 19.3516 44.627 19.3516C45.2715 19.3516 45.8164 19.4727 46.2617 19.7148C46.707 19.957 47.0527 20.293 47.2988 20.7227C47.5488 21.1484 47.7031 21.6426 47.7617 22.2051H46.6367C46.582 21.8066 46.4805 21.4648 46.332 21.1797C46.1836 20.8906 45.9727 20.668 45.6992 20.5117C45.4258 20.3555 45.0684 20.2773 44.627 20.2773C44.248 20.2773 43.9141 20.3496 43.625 20.4941C43.3398 20.6387 43.0996 20.8438 42.9043 21.1094C42.7129 21.375 42.5684 21.6934 42.4707 22.0645C42.373 22.4355 42.3242 22.8477 42.3242 23.3008V24.1621C42.3242 24.5801 42.3672 24.9727 42.4531 25.3398C42.543 25.707 42.6777 26.0293 42.8574 26.3066C43.0371 26.584 43.2656 26.8027 43.543 26.9629C43.8203 27.1191 44.1484 27.1973 44.5273 27.1973C45.0078 27.1973 45.3906 27.1211 45.6758 26.9688C45.9609 26.8164 46.1758 26.5977 46.3203 26.3125C46.4688 26.0273 46.5742 25.6855 46.6367 25.2871ZM48.8516 24.9004V24.7656C48.8516 24.3086 48.918 23.8848 49.0508 23.4941C49.1836 23.0996 49.375 22.7578 49.625 22.4688C49.875 22.1758 50.1777 21.9492 50.5332 21.7891C50.8887 21.625 51.2871 21.543 51.7285 21.543C52.1738 21.543 52.5742 21.625 52.9297 21.7891C53.2891 21.9492 53.5938 22.1758 53.8438 22.4688C54.0977 22.7578 54.291 23.0996 54.4238 23.4941C54.5566 23.8848 54.623 24.3086 54.623 24.7656V24.9004C54.623 25.3574 54.5566 25.7812 54.4238 26.1719C54.291 26.5625 54.0977 26.9043 53.8438 27.1973C53.5938 27.4863 53.291 27.7129 52.9355 27.877C52.584 28.0371 52.1855 28.1172 51.7402 28.1172C51.2949 28.1172 50.8945 28.0371 50.5391 27.877C50.1836 27.7129 49.8789 27.4863 49.625 27.1973C49.375 26.9043 49.1836 26.5625 49.0508 26.1719C48.918 25.7812 48.8516 25.3574 48.8516 24.9004ZM49.9355 24.7656V24.9004C49.9355 25.2168 49.9727 25.5156 50.0469 25.7969C50.1211 26.0742 50.2324 26.3203 50.3809 26.5352C50.5332 26.75 50.7227 26.9199 50.9492 27.0449C51.1758 27.166 51.4395 27.2266 51.7402 27.2266C52.0371 27.2266 52.2969 27.166 52.5195 27.0449C52.7461 26.9199 52.9336 26.75 53.082 26.5352C53.2305 26.3203 53.3418 26.0742 53.416 25.7969C53.4941 25.5156 53.5332 25.2168 53.5332 24.9004V24.7656C53.5332 24.4531 53.4941 24.1582 53.416 23.8809C53.3418 23.5996 53.2285 23.3516 53.0762 23.1367C52.9277 22.918 52.7402 22.7461 52.5137 22.6211C52.291 22.4961 52.0293 22.4336 51.7285 22.4336C51.4316 22.4336 51.1699 22.4961 50.9434 22.6211C50.7207 22.7461 50.5332 22.918 50.3809 23.1367C50.2324 23.3516 50.1211 23.5996 50.0469 23.8809C49.9727 24.1582 49.9355 24.4531 49.9355 24.7656ZM57.0605 22.9199V28H55.9707V21.6602H57.002L57.0605 22.9199ZM56.8379 24.5898L56.334 24.5723C56.3379 24.1387 56.3945 23.7383 56.5039 23.3711C56.6133 23 56.7754 22.6777 56.9902 22.4043C57.2051 22.1309 57.4727 21.9199 57.793 21.7715C58.1133 21.6191 58.4844 21.543 58.9062 21.543C59.2031 21.543 59.4766 21.5859 59.7266 21.6719C59.9766 21.7539 60.1934 21.8848 60.377 22.0645C60.5605 22.2441 60.7031 22.4746 60.8047 22.7559C60.9062 23.0371 60.957 23.377 60.957 23.7754V28H59.873V23.8281C59.873 23.4961 59.8164 23.2305 59.7031 23.0312C59.5938 22.832 59.4375 22.6875 59.2344 22.5977C59.0312 22.5039 58.793 22.457 58.5195 22.457C58.1992 22.457 57.9316 22.5137 57.7168 22.627C57.502 22.7402 57.3301 22.8965 57.2012 23.0957C57.0723 23.2949 56.9785 23.5234 56.9199 23.7812C56.8652 24.0352 56.8379 24.3047 56.8379 24.5898ZM60.9453 23.9922L60.2188 24.2148C60.2227 23.8672 60.2793 23.5332 60.3887 23.2129C60.502 22.8926 60.6641 22.6074 60.875 22.3574C61.0898 22.1074 61.3535 21.9102 61.666 21.7656C61.9785 21.6172 62.3359 21.543 62.7383 21.543C63.0781 21.543 63.3789 21.5879 63.6406 21.6777C63.9062 21.7676 64.1289 21.9062 64.3086 22.0938C64.4922 22.2773 64.6309 22.5137 64.7246 22.8027C64.8184 23.0918 64.8652 23.4355 64.8652 23.834V28H63.7754V23.8223C63.7754 23.4668 63.7188 23.1914 63.6055 22.9961C63.4961 22.7969 63.3398 22.6582 63.1367 22.5801C62.9375 22.498 62.6992 22.457 62.4219 22.457C62.1836 22.457 61.9727 22.498 61.7891 22.5801C61.6055 22.6621 61.4512 22.7754 61.3262 22.9199C61.2012 23.0605 61.1055 23.2227 61.0391 23.4062C60.9766 23.5898 60.9453 23.7852 60.9453 23.9922ZM67.584 22.9199V28H66.4941V21.6602H67.5254L67.584 22.9199ZM67.3613 24.5898L66.8574 24.5723C66.8613 24.1387 66.918 23.7383 67.0273 23.3711C67.1367 23 67.2988 22.6777 67.5137 22.4043C67.7285 22.1309 67.9961 21.9199 68.3164 21.7715C68.6367 21.6191 69.0078 21.543 69.4297 21.543C69.7266 21.543 70 21.5859 70.25 21.6719C70.5 21.7539 70.7168 21.8848 70.9004 22.0645C71.084 22.2441 71.2266 22.4746 71.3281 22.7559C71.4297 23.0371 71.4805 23.377 71.4805 23.7754V28H70.3965V23.8281C70.3965 23.4961 70.3398 23.2305 70.2266 23.0312C70.1172 22.832 69.9609 22.6875 69.7578 22.5977C69.5547 22.5039 69.3164 22.457 69.043 22.457C68.7227 22.457 68.4551 22.5137 68.2402 22.627C68.0254 22.7402 67.8535 22.8965 67.7246 23.0957C67.5957 23.2949 67.502 23.5234 67.4434 23.7812C67.3887 24.0352 67.3613 24.3047 67.3613 24.5898ZM71.4688 23.9922L70.7422 24.2148C70.7461 23.8672 70.8027 23.5332 70.9121 23.2129C71.0254 22.8926 71.1875 22.6074 71.3984 22.3574C71.6133 22.1074 71.877 21.9102 72.1895 21.7656C72.502 21.6172 72.8594 21.543 73.2617 21.543C73.6016 21.543 73.9023 21.5879 74.1641 21.6777C74.4297 21.7676 74.6523 21.9062 74.832 22.0938C75.0156 22.2773 75.1543 22.5137 75.248 22.8027C75.3418 23.0918 75.3887 23.4355 75.3887 23.834V28H74.2988V23.8223C74.2988 23.4668 74.2422 23.1914 74.1289 22.9961C74.0195 22.7969 73.8633 22.6582 73.6602 22.5801C73.4609 22.498 73.2227 22.457 72.9453 22.457C72.707 22.457 72.4961 22.498 72.3125 22.5801C72.1289 22.6621 71.9746 22.7754 71.8496 22.9199C71.7246 23.0605 71.6289 23.2227 71.5625 23.4062C71.5 23.5898 71.4688 23.7852 71.4688 23.9922ZM80.9082 26.5352V21.6602H81.998V28H80.9609L80.9082 26.5352ZM81.1133 25.1992L81.5645 25.1875C81.5645 25.6094 81.5195 26 81.4297 26.3594C81.3438 26.7148 81.2031 27.0234 81.0078 27.2852C80.8125 27.5469 80.5566 27.752 80.2402 27.9004C79.9238 28.0449 79.5391 28.1172 79.0859 28.1172C78.7773 28.1172 78.4941 28.0723 78.2363 27.9824C77.9824 27.8926 77.7637 27.7539 77.5801 27.5664C77.3965 27.3789 77.2539 27.1348 77.1523 26.834C77.0547 26.5332 77.0059 26.1719 77.0059 25.75V21.6602H78.0898V25.7617C78.0898 26.0469 78.1211 26.2832 78.1836 26.4707C78.25 26.6543 78.3379 26.8008 78.4473 26.9102C78.5605 27.0156 78.6855 27.0898 78.8223 27.1328C78.9629 27.1758 79.1074 27.1973 79.2559 27.1973C79.7168 27.1973 80.082 27.1094 80.3516 26.9336C80.6211 26.7539 80.8145 26.5137 80.9316 26.2129C81.0527 25.9082 81.1133 25.5703 81.1133 25.1992ZM84.7344 23.0137V28H83.6504V21.6602H84.6758L84.7344 23.0137ZM84.4766 24.5898L84.0254 24.5723C84.0293 24.1387 84.0938 23.7383 84.2188 23.3711C84.3438 23 84.5195 22.6777 84.7461 22.4043C84.9727 22.1309 85.2422 21.9199 85.5547 21.7715C85.8711 21.6191 86.2207 21.543 86.6035 21.543C86.916 21.543 87.1973 21.5859 87.4473 21.6719C87.6973 21.7539 87.9102 21.8867 88.0859 22.0703C88.2656 22.2539 88.4023 22.4922 88.4961 22.7852C88.5898 23.0742 88.6367 23.4277 88.6367 23.8457V28H87.5469V23.834C87.5469 23.502 87.498 23.2363 87.4004 23.0371C87.3027 22.834 87.1602 22.6875 86.9727 22.5977C86.7852 22.5039 86.5547 22.457 86.2812 22.457C86.0117 22.457 85.7656 22.5137 85.543 22.627C85.3242 22.7402 85.1348 22.8965 84.9746 23.0957C84.8184 23.2949 84.6953 23.5234 84.6055 23.7812C84.5195 24.0352 84.4766 24.3047 84.4766 24.5898ZM91.4609 21.6602V28H90.3711V21.6602H91.4609ZM90.2891 19.9785C90.2891 19.8027 90.3418 19.6543 90.4473 19.5332C90.5566 19.4121 90.7168 19.3516 90.9277 19.3516C91.1348 19.3516 91.293 19.4121 91.4023 19.5332C91.5156 19.6543 91.5723 19.8027 91.5723 19.9785C91.5723 20.1465 91.5156 20.291 91.4023 20.4121C91.293 20.5293 91.1348 20.5879 90.9277 20.5879C90.7168 20.5879 90.5566 20.5293 90.4473 20.4121C90.3418 20.291 90.2891 20.1465 90.2891 19.9785ZM95.7383 27.2266C95.9961 27.2266 96.2344 27.1738 96.4531 27.0684C96.6719 26.9629 96.8516 26.8184 96.9922 26.6348C97.1328 26.4473 97.2129 26.2344 97.2324 25.9961H98.2637C98.2441 26.3711 98.1172 26.7207 97.8828 27.0449C97.6523 27.3652 97.3496 27.625 96.9746 27.8242C96.5996 28.0195 96.1875 28.1172 95.7383 28.1172C95.2617 28.1172 94.8457 28.0332 94.4902 27.8652C94.1387 27.6973 93.8457 27.4668 93.6113 27.1738C93.3809 26.8809 93.207 26.5449 93.0898 26.166C92.9766 25.7832 92.9199 25.3789 92.9199 24.9531V24.707C92.9199 24.2812 92.9766 23.8789 93.0898 23.5C93.207 23.1172 93.3809 22.7793 93.6113 22.4863C93.8457 22.1934 94.1387 21.9629 94.4902 21.7949C94.8457 21.627 95.2617 21.543 95.7383 21.543C96.2344 21.543 96.668 21.6445 97.0391 21.8477C97.4102 22.0469 97.7012 22.3203 97.9121 22.668C98.127 23.0117 98.2441 23.4023 98.2637 23.8398H97.2324C97.2129 23.5781 97.1387 23.3418 97.0098 23.1309C96.8848 22.9199 96.7129 22.752 96.4941 22.627C96.2793 22.498 96.0273 22.4336 95.7383 22.4336C95.4062 22.4336 95.127 22.5 94.9004 22.6328C94.6777 22.7617 94.5 22.9375 94.3672 23.1602C94.2383 23.3789 94.1445 23.623 94.0859 23.8926C94.0312 24.1582 94.0039 24.4297 94.0039 24.707V24.9531C94.0039 25.2305 94.0312 25.5039 94.0859 25.7734C94.1406 26.043 94.2324 26.2871 94.3613 26.5059C94.4941 26.7246 94.6719 26.9004 94.8945 27.0332C95.1211 27.1621 95.4023 27.2266 95.7383 27.2266ZM103.221 26.916V23.6523C103.221 23.4023 103.17 23.1855 103.068 23.002C102.971 22.8145 102.822 22.6699 102.623 22.5684C102.424 22.4668 102.178 22.416 101.885 22.416C101.611 22.416 101.371 22.4629 101.164 22.5566C100.961 22.6504 100.801 22.7734 100.684 22.9258C100.57 23.0781 100.514 23.2422 100.514 23.418H99.4297C99.4297 23.1914 99.4883 22.9668 99.6055 22.7441C99.7227 22.5215 99.8906 22.3203 100.109 22.1406C100.332 21.957 100.598 21.8125 100.906 21.707C101.219 21.5977 101.566 21.543 101.949 21.543C102.41 21.543 102.816 21.6211 103.168 21.7773C103.523 21.9336 103.801 22.1699 104 22.4863C104.203 22.7988 104.305 23.1914 104.305 23.6641V26.6172C104.305 26.8281 104.322 27.0527 104.357 27.291C104.396 27.5293 104.453 27.7344 104.527 27.9062V28H103.396C103.342 27.875 103.299 27.709 103.268 27.502C103.236 27.291 103.221 27.0957 103.221 26.916ZM103.408 24.1562L103.42 24.918H102.324C102.016 24.918 101.74 24.9434 101.498 24.9941C101.256 25.041 101.053 25.1133 100.889 25.2109C100.725 25.3086 100.6 25.4316 100.514 25.5801C100.428 25.7246 100.385 25.8945 100.385 26.0898C100.385 26.2891 100.43 26.4707 100.52 26.6348C100.609 26.7988 100.744 26.9297 100.924 27.0273C101.107 27.1211 101.332 27.168 101.598 27.168C101.93 27.168 102.223 27.0977 102.477 26.957C102.73 26.8164 102.932 26.6445 103.08 26.4414C103.232 26.2383 103.314 26.041 103.326 25.8496L103.789 26.3711C103.762 26.5352 103.688 26.7168 103.566 26.916C103.445 27.1152 103.283 27.3066 103.08 27.4902C102.881 27.6699 102.643 27.8203 102.365 27.9414C102.092 28.0586 101.783 28.1172 101.439 28.1172C101.01 28.1172 100.633 28.0332 100.309 27.8652C99.9883 27.6973 99.7383 27.4727 99.5586 27.1914C99.3828 26.9062 99.2949 26.5879 99.2949 26.2363C99.2949 25.8965 99.3613 25.5977 99.4941 25.3398C99.627 25.0781 99.8184 24.8613 100.068 24.6895C100.318 24.5137 100.619 24.3809 100.971 24.291C101.322 24.2012 101.715 24.1562 102.148 24.1562H103.408ZM108.664 21.6602V22.4922H105.236V21.6602H108.664ZM106.396 20.1191H107.48V26.4297C107.48 26.6445 107.514 26.8066 107.58 26.916C107.646 27.0254 107.732 27.0977 107.838 27.1328C107.943 27.168 108.057 27.1855 108.178 27.1855C108.268 27.1855 108.361 27.1777 108.459 27.1621C108.561 27.1426 108.637 27.127 108.688 27.1152L108.693 28C108.607 28.0273 108.494 28.0527 108.354 28.0762C108.217 28.1035 108.051 28.1172 107.855 28.1172C107.59 28.1172 107.346 28.0645 107.123 27.959C106.9 27.8535 106.723 27.6777 106.59 27.4316C106.461 27.1816 106.396 26.8457 106.396 26.4238V20.1191ZM111.113 21.6602V28H110.023V21.6602H111.113ZM109.941 19.9785C109.941 19.8027 109.994 19.6543 110.1 19.5332C110.209 19.4121 110.369 19.3516 110.58 19.3516C110.787 19.3516 110.945 19.4121 111.055 19.5332C111.168 19.6543 111.225 19.8027 111.225 19.9785C111.225 20.1465 111.168 20.291 111.055 20.4121C110.945 20.5293 110.787 20.5879 110.58 20.5879C110.369 20.5879 110.209 20.5293 110.1 20.4121C109.994 20.291 109.941 20.1465 109.941 19.9785ZM112.566 24.9004V24.7656C112.566 24.3086 112.633 23.8848 112.766 23.4941C112.898 23.0996 113.09 22.7578 113.34 22.4688C113.59 22.1758 113.893 21.9492 114.248 21.7891C114.604 21.625 115.002 21.543 115.443 21.543C115.889 21.543 116.289 21.625 116.645 21.7891C117.004 21.9492 117.309 22.1758 117.559 22.4688C117.812 22.7578 118.006 23.0996 118.139 23.4941C118.271 23.8848 118.338 24.3086 118.338 24.7656V24.9004C118.338 25.3574 118.271 25.7812 118.139 26.1719C118.006 26.5625 117.812 26.9043 117.559 27.1973C117.309 27.4863 117.006 27.7129 116.65 27.877C116.299 28.0371 115.9 28.1172 115.455 28.1172C115.01 28.1172 114.609 28.0371 114.254 27.877C113.898 27.7129 113.594 27.4863 113.34 27.1973C113.09 26.9043 112.898 26.5625 112.766 26.1719C112.633 25.7812 112.566 25.3574 112.566 24.9004ZM113.65 24.7656V24.9004C113.65 25.2168 113.688 25.5156 113.762 25.7969C113.836 26.0742 113.947 26.3203 114.096 26.5352C114.248 26.75 114.438 26.9199 114.664 27.0449C114.891 27.166 115.154 27.2266 115.455 27.2266C115.752 27.2266 116.012 27.166 116.234 27.0449C116.461 26.9199 116.648 26.75 116.797 26.5352C116.945 26.3203 117.057 26.0742 117.131 25.7969C117.209 25.5156 117.248 25.2168 117.248 24.9004V24.7656C117.248 24.4531 117.209 24.1582 117.131 23.8809C117.057 23.5996 116.943 23.3516 116.791 23.1367C116.643 22.918 116.455 22.7461 116.229 22.6211C116.006 22.4961 115.744 22.4336 115.443 22.4336C115.146 22.4336 114.885 22.4961 114.658 22.6211C114.436 22.7461 114.248 22.918 114.096 23.1367C113.947 23.3516 113.836 23.5996 113.762 23.8809C113.688 24.1582 113.65 24.4531 113.65 24.7656ZM120.781 23.0137V28H119.697V21.6602H120.723L120.781 23.0137ZM120.523 24.5898L120.072 24.5723C120.076 24.1387 120.141 23.7383 120.266 23.3711C120.391 23 120.566 22.6777 120.793 22.4043C121.02 22.1309 121.289 21.9199 121.602 21.7715C121.918 21.6191 122.268 21.543 122.65 21.543C122.963 21.543 123.244 21.5859 123.494 21.6719C123.744 21.7539 123.957 21.8867 124.133 22.0703C124.312 22.2539 124.449 22.4922 124.543 22.7852C124.637 23.0742 124.684 23.4277 124.684 23.8457V28H123.594V23.834C123.594 23.502 123.545 23.2363 123.447 23.0371C123.35 22.834 123.207 22.6875 123.02 22.5977C122.832 22.5039 122.602 22.457 122.328 22.457C122.059 22.457 121.812 22.5137 121.59 22.627C121.371 22.7402 121.182 22.8965 121.021 23.0957C120.865 23.2949 120.742 23.5234 120.652 23.7812C120.566 24.0352 120.523 24.3047 120.523 24.5898Z" fill="#486AAE"/>
<path d="M36.166 7.6543H33.8867V6.73438H36.166C36.6074 6.73438 36.9648 6.66406 37.2383 6.52344C37.5117 6.38281 37.7109 6.1875 37.8359 5.9375C37.9648 5.6875 38.0293 5.40234 38.0293 5.08203C38.0293 4.78906 37.9648 4.51367 37.8359 4.25586C37.7109 3.99805 37.5117 3.79102 37.2383 3.63477C36.9648 3.47461 36.6074 3.39453 36.166 3.39453H34.1504V11H33.0195V2.46875H36.166C36.8105 2.46875 37.3555 2.58008 37.8008 2.80273C38.2461 3.02539 38.584 3.33398 38.8145 3.72852C39.0449 4.11914 39.1602 4.56641 39.1602 5.07031C39.1602 5.61719 39.0449 6.08398 38.8145 6.4707C38.584 6.85742 38.2461 7.15234 37.8008 7.35547C37.3555 7.55469 36.8105 7.6543 36.166 7.6543ZM40.0566 7.90039V7.76562C40.0566 7.30859 40.123 6.88477 40.2559 6.49414C40.3887 6.09961 40.5801 5.75781 40.8301 5.46875C41.0801 5.17578 41.3828 4.94922 41.7383 4.78906C42.0938 4.625 42.4922 4.54297 42.9336 4.54297C43.3789 4.54297 43.7793 4.625 44.1348 4.78906C44.4941 4.94922 44.7988 5.17578 45.0488 5.46875C45.3027 5.75781 45.4961 6.09961 45.6289 6.49414C45.7617 6.88477 45.8281 7.30859 45.8281 7.76562V7.90039C45.8281 8.35742 45.7617 8.78125 45.6289 9.17188C45.4961 9.5625 45.3027 9.9043 45.0488 10.1973C44.7988 10.4863 44.4961 10.7129 44.1406 10.877C43.7891 11.0371 43.3906 11.1172 42.9453 11.1172C42.5 11.1172 42.0996 11.0371 41.7441 10.877C41.3887 10.7129 41.084 10.4863 40.8301 10.1973C40.5801 9.9043 40.3887 9.5625 40.2559 9.17188C40.123 8.78125 40.0566 8.35742 40.0566 7.90039ZM41.1406 7.76562V7.90039C41.1406 8.2168 41.1777 8.51562 41.252 8.79688C41.3262 9.07422 41.4375 9.32031 41.5859 9.53516C41.7383 9.75 41.9277 9.91992 42.1543 10.0449C42.3809 10.166 42.6445 10.2266 42.9453 10.2266C43.2422 10.2266 43.502 10.166 43.7246 10.0449C43.9512 9.91992 44.1387 9.75 44.2871 9.53516C44.4355 9.32031 44.5469 9.07422 44.6211 8.79688C44.6992 8.51562 44.7383 8.2168 44.7383 7.90039V7.76562C44.7383 7.45312 44.6992 7.1582 44.6211 6.88086C44.5469 6.59961 44.4336 6.35156 44.2812 6.13672C44.1328 5.91797 43.9453 5.74609 43.7188 5.62109C43.4961 5.49609 43.2344 5.43359 42.9336 5.43359C42.6367 5.43359 42.375 5.49609 42.1484 5.62109C41.9258 5.74609 41.7383 5.91797 41.5859 6.13672C41.4375 6.35156 41.3262 6.59961 41.252 6.88086C41.1777 7.1582 41.1406 7.45312 41.1406 7.76562ZM48.793 9.875L50.4219 4.66016H51.1367L50.9961 5.69727L49.3379 11H48.6406L48.793 9.875ZM47.6973 4.66016L49.0859 9.93359L49.1855 11H48.4531L46.6133 4.66016H47.6973ZM52.6953 9.89258L54.0195 4.66016H55.0977L53.2578 11H52.5312L52.6953 9.89258ZM51.2949 4.66016L52.8887 9.78711L53.0703 11H52.3789L50.6738 5.68555L50.5332 4.66016H51.2949ZM58.8418 11.1172C58.4004 11.1172 58 11.043 57.6406 10.8945C57.2852 10.7422 56.9785 10.5293 56.7207 10.2559C56.4668 9.98242 56.2715 9.6582 56.1348 9.2832C55.998 8.9082 55.9297 8.49805 55.9297 8.05273V7.80664C55.9297 7.29102 56.0059 6.83203 56.1582 6.42969C56.3105 6.02344 56.5176 5.67969 56.7793 5.39844C57.041 5.11719 57.3379 4.9043 57.6699 4.75977C58.002 4.61523 58.3457 4.54297 58.7012 4.54297C59.1543 4.54297 59.5449 4.62109 59.873 4.77734C60.2051 4.93359 60.4766 5.15234 60.6875 5.43359C60.8984 5.71094 61.0547 6.03906 61.1562 6.41797C61.2578 6.79297 61.3086 7.20312 61.3086 7.64844V8.13477H56.5742V7.25H60.2246V7.16797C60.209 6.88672 60.1504 6.61328 60.0488 6.34766C59.9512 6.08203 59.7949 5.86328 59.5801 5.69141C59.3652 5.51953 59.0723 5.43359 58.7012 5.43359C58.4551 5.43359 58.2285 5.48633 58.0215 5.5918C57.8145 5.69336 57.6367 5.8457 57.4883 6.04883C57.3398 6.25195 57.2246 6.5 57.1426 6.79297C57.0605 7.08594 57.0195 7.42383 57.0195 7.80664V8.05273C57.0195 8.35352 57.0605 8.63672 57.1426 8.90234C57.2285 9.16406 57.3516 9.39453 57.5117 9.59375C57.6758 9.79297 57.873 9.94922 58.1035 10.0625C58.3379 10.1758 58.6035 10.2324 58.9004 10.2324C59.2832 10.2324 59.6074 10.1543 59.873 9.99805C60.1387 9.8418 60.3711 9.63281 60.5703 9.37109L61.2266 9.89258C61.0898 10.0996 60.916 10.2969 60.7051 10.4844C60.4941 10.6719 60.2344 10.8242 59.9258 10.9414C59.6211 11.0586 59.2598 11.1172 58.8418 11.1172ZM63.6582 5.65625V11H62.5742V4.66016H63.6289L63.6582 5.65625ZM65.6387 4.625L65.6328 5.63281C65.543 5.61328 65.457 5.60156 65.375 5.59766C65.2969 5.58984 65.207 5.58594 65.1055 5.58594C64.8555 5.58594 64.6348 5.625 64.4434 5.70312C64.252 5.78125 64.0898 5.89062 63.957 6.03125C63.8242 6.17188 63.7188 6.33984 63.6406 6.53516C63.5664 6.72656 63.5176 6.9375 63.4941 7.16797L63.1895 7.34375C63.1895 6.96094 63.2266 6.60156 63.3008 6.26562C63.3789 5.92969 63.498 5.63281 63.6582 5.375C63.8184 5.11328 64.0215 4.91016 64.2676 4.76562C64.5176 4.61719 64.8145 4.54297 65.1582 4.54297C65.2363 4.54297 65.3262 4.55273 65.4277 4.57227C65.5293 4.58789 65.5996 4.60547 65.6387 4.625ZM69.1543 11.1172C68.7129 11.1172 68.3125 11.043 67.9531 10.8945C67.5977 10.7422 67.291 10.5293 67.0332 10.2559C66.7793 9.98242 66.584 9.6582 66.4473 9.2832C66.3105 8.9082 66.2422 8.49805 66.2422 8.05273V7.80664C66.2422 7.29102 66.3184 6.83203 66.4707 6.42969C66.623 6.02344 66.8301 5.67969 67.0918 5.39844C67.3535 5.11719 67.6504 4.9043 67.9824 4.75977C68.3145 4.61523 68.6582 4.54297 69.0137 4.54297C69.4668 4.54297 69.8574 4.62109 70.1855 4.77734C70.5176 4.93359 70.7891 5.15234 71 5.43359C71.2109 5.71094 71.3672 6.03906 71.4688 6.41797C71.5703 6.79297 71.6211 7.20312 71.6211 7.64844V8.13477H66.8867V7.25H70.5371V7.16797C70.5215 6.88672 70.4629 6.61328 70.3613 6.34766C70.2637 6.08203 70.1074 5.86328 69.8926 5.69141C69.6777 5.51953 69.3848 5.43359 69.0137 5.43359C68.7676 5.43359 68.541 5.48633 68.334 5.5918C68.127 5.69336 67.9492 5.8457 67.8008 6.04883C67.6523 6.25195 67.5371 6.5 67.4551 6.79297C67.373 7.08594 67.332 7.42383 67.332 7.80664V8.05273C67.332 8.35352 67.373 8.63672 67.4551 8.90234C67.541 9.16406 67.6641 9.39453 67.8242 9.59375C67.9883 9.79297 68.1855 9.94922 68.416 10.0625C68.6504 10.1758 68.916 10.2324 69.2129 10.2324C69.5957 10.2324 69.9199 10.1543 70.1855 9.99805C70.4512 9.8418 70.6836 9.63281 70.8828 9.37109L71.5391 9.89258C71.4023 10.0996 71.2285 10.2969 71.0176 10.4844C70.8066 10.6719 70.5469 10.8242 70.2383 10.9414C69.9336 11.0586 69.5723 11.1172 69.1543 11.1172ZM76.8828 9.76953V2H77.9727V11H76.9766L76.8828 9.76953ZM72.6172 7.90039V7.77734C72.6172 7.29297 72.6758 6.85352 72.793 6.45898C72.9141 6.06055 73.084 5.71875 73.3027 5.43359C73.5254 5.14844 73.7891 4.92969 74.0938 4.77734C74.4023 4.62109 74.7461 4.54297 75.125 4.54297C75.5234 4.54297 75.8711 4.61328 76.168 4.75391C76.4688 4.89062 76.7227 5.0918 76.9297 5.35742C77.1406 5.61914 77.3066 5.93555 77.4277 6.30664C77.5488 6.67773 77.6328 7.09766 77.6797 7.56641V8.10547C77.6367 8.57031 77.5527 8.98828 77.4277 9.35938C77.3066 9.73047 77.1406 10.0469 76.9297 10.3086C76.7227 10.5703 76.4688 10.7715 76.168 10.9121C75.8672 11.0488 75.5156 11.1172 75.1133 11.1172C74.7422 11.1172 74.4023 11.0371 74.0938 10.877C73.7891 10.7168 73.5254 10.4922 73.3027 10.2031C73.084 9.91406 72.9141 9.57422 72.793 9.18359C72.6758 8.78906 72.6172 8.36133 72.6172 7.90039ZM73.707 7.77734V7.90039C73.707 8.2168 73.7383 8.51367 73.8008 8.79102C73.8672 9.06836 73.9688 9.3125 74.1055 9.52344C74.2422 9.73438 74.416 9.90039 74.627 10.0215C74.8379 10.1387 75.0898 10.1973 75.3828 10.1973C75.7422 10.1973 76.0371 10.1211 76.2676 9.96875C76.502 9.81641 76.6895 9.61523 76.8301 9.36523C76.9707 9.11523 77.0801 8.84375 77.1582 8.55078V7.13867C77.1113 6.92383 77.043 6.7168 76.9531 6.51758C76.8672 6.31445 76.7539 6.13477 76.6133 5.97852C76.4766 5.81836 76.3066 5.69141 76.1035 5.59766C75.9043 5.50391 75.668 5.45703 75.3945 5.45703C75.0977 5.45703 74.8418 5.51953 74.627 5.64453C74.416 5.76562 74.2422 5.93359 74.1055 6.14844C73.9688 6.35938 73.8672 6.60547 73.8008 6.88672C73.7383 7.16406 73.707 7.46094 73.707 7.77734ZM85.8418 7.00977H83.6797L83.668 6.10156H85.6309C85.9551 6.10156 86.2383 6.04688 86.4805 5.9375C86.7227 5.82812 86.9102 5.67188 87.043 5.46875C87.1797 5.26172 87.248 5.01562 87.248 4.73047C87.248 4.41797 87.1875 4.16406 87.0664 3.96875C86.9492 3.76953 86.7676 3.625 86.5215 3.53516C86.2793 3.44141 85.9707 3.39453 85.5957 3.39453H83.9316V11H82.8008V2.46875H85.5957C86.0332 2.46875 86.4238 2.51367 86.7676 2.60352C87.1113 2.68945 87.4023 2.82617 87.6406 3.01367C87.8828 3.19727 88.0664 3.43164 88.1914 3.7168C88.3164 4.00195 88.3789 4.34375 88.3789 4.74219C88.3789 5.09375 88.2891 5.41211 88.1094 5.69727C87.9297 5.97852 87.6797 6.20898 87.3594 6.38867C87.043 6.56836 86.6719 6.68359 86.2461 6.73438L85.8418 7.00977ZM85.7891 11H83.2344L83.873 10.0801H85.7891C86.1484 10.0801 86.4531 10.0176 86.7031 9.89258C86.957 9.76758 87.1504 9.5918 87.2832 9.36523C87.416 9.13477 87.4824 8.86328 87.4824 8.55078C87.4824 8.23438 87.4258 7.96094 87.3125 7.73047C87.1992 7.5 87.0215 7.32227 86.7793 7.19727C86.5371 7.07227 86.2246 7.00977 85.8418 7.00977H84.2305L84.2422 6.10156H86.4453L86.6855 6.42969C87.0957 6.46484 87.4434 6.58203 87.7285 6.78125C88.0137 6.97656 88.2305 7.22656 88.3789 7.53125C88.5312 7.83594 88.6074 8.17188 88.6074 8.53906C88.6074 9.07031 88.4902 9.51953 88.2559 9.88672C88.0254 10.25 87.6992 10.5273 87.2773 10.7188C86.8555 10.9062 86.3594 11 85.7891 11ZM91.8945 10.3438L93.6582 4.66016H94.8184L92.2754 11.9785C92.2168 12.1348 92.1387 12.3027 92.041 12.4824C91.9473 12.666 91.8262 12.8398 91.6777 13.0039C91.5293 13.168 91.3496 13.3008 91.1387 13.4023C90.9316 13.5078 90.6836 13.5605 90.3945 13.5605C90.3086 13.5605 90.1992 13.5488 90.0664 13.5254C89.9336 13.502 89.8398 13.4824 89.7852 13.4668L89.7793 12.5879C89.8105 12.5918 89.8594 12.5957 89.9258 12.5996C89.9961 12.6074 90.0449 12.6113 90.0723 12.6113C90.3184 12.6113 90.5273 12.5781 90.6992 12.5117C90.8711 12.4492 91.0156 12.3418 91.1328 12.1895C91.2539 12.041 91.3574 11.8359 91.4434 11.5742L91.8945 10.3438ZM90.5996 4.66016L92.2461 9.58203L92.5273 10.7246L91.748 11.123L89.416 4.66016H90.5996Z" fill="#486AAE"/>
</svg>
