<svg width="249" height="197" viewBox="0 0 249 197" fill="none" xmlns="http://www.w3.org/2000/svg">
<path d="M9.47714e-06 100.493C9.47714e-06 173.553 73.0143 219.811 158.523 183.792C210.512 161.892 249 158.878 249 85.8185C249 37.7928 226.181 7.24373 152.541 1.34124C54.5856 -6.51008 9.47714e-06 19.2872 9.47714e-06 100.493Z" fill="#93BFF2" fill-opacity="0.58"/>
<path d="M137.586 152.288C137.446 152.307 137.304 152.326 137.16 152.34C136.768 152.38 136.374 152.4 135.98 152.4C134.3 152.403 132.642 152.03 131.127 151.311C131.039 151.421 130.951 151.532 130.861 151.644C132.455 152.417 134.206 152.818 135.98 152.816C136.4 152.816 136.821 152.794 137.239 152.75C137.381 152.735 137.524 152.716 137.664 152.696C138.821 152.531 139.946 152.192 141 151.692C140.91 151.577 140.822 151.465 140.737 151.355C139.738 151.818 138.677 152.133 137.586 152.288Z" fill="#0D936C"/>
<path d="M138.638 159.246C138.494 159.254 138.35 159.258 138.205 159.258C138.162 159.26 138.116 159.26 138.072 159.26C136.252 159.26 134.459 158.823 132.846 157.986C131.234 157.149 129.848 155.936 128.809 154.452C128.725 154.575 128.642 154.697 128.56 154.822C129.644 156.324 131.071 157.547 132.725 158.392C134.38 159.236 136.212 159.676 138.072 159.676C138.13 159.676 138.189 159.676 138.247 159.674C138.394 159.672 138.538 159.668 138.682 159.661C140.916 159.548 143.069 158.797 144.885 157.5C144.818 157.377 144.751 157.254 144.682 157.132C142.917 158.406 140.817 159.14 138.638 159.246Z" fill="#0D936C"/>
<path d="M138.981 165.043C138.835 165.056 138.689 165.064 138.542 165.07C138.385 165.077 138.228 165.081 138.072 165.081C135.627 165.078 133.248 164.288 131.293 162.83C129.337 161.371 127.909 159.323 127.223 156.99C127.129 157.159 127.035 157.325 126.945 157.493C127.718 159.82 129.209 161.846 131.206 163.283C133.204 164.719 135.606 165.494 138.072 165.497C138.228 165.497 138.385 165.494 138.54 165.486C138.689 165.482 138.835 165.474 138.981 165.463C141.939 165.233 144.698 163.895 146.7 161.719C146.656 161.566 146.606 161.414 146.556 161.26C144.622 163.452 141.905 164.809 138.981 165.043Z" fill="#0D936C"/>
<path d="M49.8915 75.8196C65.0567 75.8196 77.3505 63.6026 77.3505 48.5321C77.3505 33.4616 65.0567 21.2446 49.8915 21.2446C34.7263 21.2446 22.4324 33.4616 22.4324 48.5321C22.4324 63.6026 34.7263 75.8196 49.8915 75.8196Z" fill="#D1D1D1"/>
<path d="M49.8915 71.2717C62.5292 71.2717 72.774 61.0908 72.774 48.5321C72.774 35.9734 62.5292 25.7925 49.8915 25.7925C37.2538 25.7925 27.009 35.9734 27.009 48.5321C27.009 61.0908 37.2538 71.2717 49.8915 71.2717Z" fill="#4DDAB1"/>
<path d="M122.81 75.8196C137.976 75.8196 150.27 63.6026 150.27 48.5321C150.27 33.4616 137.976 21.2446 122.81 21.2446C107.645 21.2446 95.3515 33.4616 95.3515 48.5321C95.3515 63.6026 107.645 75.8196 122.81 75.8196Z" fill="#D1D1D1"/>
<path d="M122.81 71.2717C135.448 71.2717 145.693 61.0908 145.693 48.5321C145.693 35.9734 135.448 25.7925 122.81 25.7925C110.173 25.7925 99.928 35.9734 99.928 48.5321C99.928 61.0908 110.173 71.2717 122.81 71.2717Z" fill="white"/>
<path d="M195.729 75.8196C210.895 75.8196 223.189 63.6026 223.189 48.5321C223.189 33.4616 210.895 21.2446 195.729 21.2446C180.564 21.2446 168.27 33.4616 168.27 48.5321C168.27 63.6026 180.564 75.8196 195.729 75.8196Z" fill="#D1D1D1"/>
<path d="M195.73 71.2717C208.367 71.2717 218.612 61.0908 218.612 48.5321C218.612 35.9733 208.367 25.7925 195.73 25.7925C183.092 25.7925 172.847 35.9733 172.847 48.5321C172.847 61.0908 183.092 71.2717 195.73 71.2717Z" fill="white"/>
<path d="M47.9471 56.7552C47.9062 56.7552 47.8652 56.7542 47.8242 56.7523C47.4623 56.7349 47.1085 56.64 46.787 56.474C46.4654 56.308 46.1839 56.0748 45.9615 55.7905L42.4515 51.3058C42.0428 50.7823 41.8597 50.1192 41.9423 49.4618C42.025 48.8044 42.3667 48.2064 42.8924 47.799L43.0187 47.7013C43.5455 47.2952 44.2128 47.1133 44.8744 47.1954C45.536 47.2776 46.1377 47.6171 46.5477 48.1396C46.7456 48.3923 46.996 48.5997 47.2819 48.7473C47.5679 48.895 47.8826 48.9795 48.2044 48.9951C48.5263 49.0107 48.8477 48.957 49.1468 48.8377C49.4458 48.7183 49.7153 48.5362 49.937 48.3038L57.0642 40.8272C57.2913 40.589 57.5635 40.3975 57.865 40.2638C58.1666 40.13 58.4918 40.0566 58.8219 40.0478C59.152 40.0389 59.4807 40.0948 59.7891 40.2121C60.0975 40.3295 60.3796 40.5061 60.6193 40.7318L60.7357 40.8414C61.2198 41.2972 61.5019 41.9255 61.5199 42.588C61.5379 43.2505 61.2903 43.8929 60.8316 44.374L49.772 55.9748C49.5372 56.2214 49.2543 56.4178 48.9405 56.552C48.6267 56.6861 48.2887 56.7553 47.9471 56.7552Z" fill="white"/>
<path d="M110.759 43.0068H92.6852V27.3866C92.7039 26.4194 93.1076 25.499 93.808 24.8272C94.5083 24.1554 95.4482 23.7869 96.4215 23.8026H102.429C107.022 23.8026 110.759 27.387 110.759 31.7927V43.0068Z" fill="#2F2E41"/>
<path d="M117.45 173.716L114.019 173.715L112.387 160.564L117.451 160.564L117.45 173.716Z" fill="#FFB6B6"/>
<path d="M118.325 177.021L107.262 177.021V176.881C107.262 175.747 107.716 174.658 108.523 173.856C109.331 173.053 110.426 172.602 111.568 172.602L118.325 172.603L118.325 177.021Z" fill="#021A72"/>
<path d="M85.8255 173.716L82.3943 173.715L80.7621 160.564L85.826 160.564L85.8255 173.716Z" fill="#FFB6B6"/>
<path d="M86.7005 177.021L75.6373 177.021V176.881C75.6373 175.747 76.0911 174.658 76.8986 173.856C77.7061 173.053 78.8014 172.602 79.9434 172.602L86.7007 172.603L86.7005 177.021Z" fill="#021A72"/>
<path d="M89.9683 68.0594L87.7293 82.2434L108.999 82.5214L106.2 68.8939L89.9683 68.0594Z" fill="#FFB6B6"/>
<path d="M88.3466 78.7802L81.5723 96.7055L80.7327 170.991H86.4699L100.183 111.307L112.777 169.433H118.374L114.456 104.076C114.456 104.076 115.612 90.9576 109.699 83.2169L108.259 79.0846L88.3466 78.7802Z" fill="#FFC907"/>
<path d="M117.404 92.7539C116.812 92.5935 116.263 92.306 115.794 91.9117C115.326 91.5174 114.95 91.0259 114.694 90.4717C114.437 89.9175 114.306 89.3142 114.31 88.7042C114.313 88.0942 114.451 87.4924 114.714 86.9412L105.666 57.6253L112.321 56.3143L120.597 85.05C121.5 85.5502 122.186 86.3621 122.527 87.3318C122.867 88.3015 122.838 89.3615 122.444 90.3111C122.051 91.2607 121.32 92.0339 120.391 92.4841C119.463 92.9343 118.4 93.0303 117.404 92.7539Z" fill="#FFB6B6"/>
<path d="M105.43 75.8928L90.7681 75.6115C90.349 75.6026 89.9445 75.4575 89.6163 75.1984C89.2882 74.9392 89.0546 74.5803 88.9513 74.1766C88.1653 71.0841 86.436 63.0245 87.3532 54.9972C87.5343 53.4422 88.0273 51.939 88.8032 50.5766C89.5791 49.2142 90.622 48.0203 91.8704 47.0655C93.1187 46.1108 94.5471 45.4145 96.071 45.0179C97.5949 44.6214 99.1834 44.5326 100.742 44.7568C102.387 44.9908 103.963 45.5677 105.368 46.4496C106.772 47.3316 107.973 48.4986 108.892 49.8743C109.81 51.2499 110.426 52.803 110.698 54.4317C110.97 56.0604 110.893 57.7279 110.471 59.3247C108.625 66.2896 107.583 71.2724 107.372 74.135C107.341 74.5489 107.175 74.9412 106.898 75.2522C106.621 75.5631 106.25 75.7755 105.84 75.8569C105.719 75.881 105.595 75.8931 105.471 75.8932C105.457 75.8932 105.443 75.8931 105.43 75.8928Z" fill="#000B5F"/>
<path d="M60.8937 50.1421C60.9818 50.3384 61.0542 50.5413 61.1101 50.7489L79.4625 56.9463L83.0087 53.8676L88.3836 58.5788L82.6387 64.6352C82.1746 65.1245 81.5633 65.4509 80.8966 65.5656C80.2299 65.6802 79.5437 65.5768 78.9412 65.271L59.303 55.3025C58.5929 55.7354 57.7669 55.9432 56.935 55.8982C56.1031 55.8532 55.3047 55.5576 54.646 55.0507C53.9872 54.5438 53.4994 53.8496 53.2474 53.0605C52.9954 52.2713 52.9911 51.4247 53.2351 50.633C53.4791 49.8414 53.9599 49.1424 54.6134 48.6289C55.267 48.1154 56.0624 47.8119 56.8938 47.7586C57.7252 47.7053 58.5532 47.9048 59.2677 48.3306C59.9823 48.7564 60.5494 49.3882 60.8937 50.1421Z" fill="#FFB6B6"/>
<path d="M79.5005 55.9579C79.5019 55.7067 79.5578 55.4588 79.6644 55.2311C79.7711 55.0034 79.9259 54.8012 80.1183 54.6384L86.8382 48.9501C87.6885 47.9817 88.8907 47.388 90.1809 47.2991C91.4712 47.2103 92.7442 47.6337 93.7208 48.4763C94.6974 49.319 95.2979 50.5122 95.3904 51.7941C95.483 53.0761 95.0601 54.3423 94.2146 55.3148L89.4292 62.72C89.2926 62.9313 89.1118 63.1109 88.8991 63.2465C88.6864 63.3821 88.4467 63.4706 88.1965 63.5059C87.9463 63.5412 87.6913 63.5225 87.449 63.451C87.2067 63.3796 86.9828 63.257 86.7924 63.0918L80.1022 57.2849C79.9117 57.1198 79.7594 56.9157 79.6555 56.6867C79.5517 56.4577 79.4988 56.2091 79.5005 55.9579Z" fill="#000B5F"/>
<path d="M105.26 65.0512C105.037 64.9343 104.841 64.7708 104.687 64.5719C104.532 64.373 104.423 64.1433 104.366 63.8986L102.38 55.3515C101.906 54.1555 101.93 52.8218 102.445 51.6429C102.959 50.464 103.924 49.5361 105.126 49.0627C106.328 48.5893 107.67 48.609 108.858 49.1175C110.046 49.626 110.982 50.5818 111.461 51.7753L115.873 59.4065C115.998 59.6243 116.076 59.8665 116.099 60.1166C116.122 60.3667 116.091 60.6188 116.007 60.8558C115.923 61.0928 115.789 61.3091 115.614 61.4899C115.438 61.6707 115.226 61.8119 114.991 61.9037L106.723 65.1315C106.488 65.2234 106.235 65.2639 105.983 65.25C105.73 65.2362 105.484 65.1684 105.26 65.0512Z" fill="#000B5F"/>
<path d="M112.373 25.329C113.052 23.7497 111.884 21.7402 109.765 20.8407C107.646 19.9412 105.378 20.4923 104.7 22.0716C104.021 23.6509 105.188 25.6604 107.307 26.5599C109.426 27.4594 111.694 26.9083 112.373 25.329Z" fill="#2F2E41"/>
<path d="M105.8 37.0682C108.066 32.9473 106.542 27.7805 102.396 25.5278C98.2489 23.2751 93.0496 24.7896 90.7828 28.9105C88.516 33.0314 90.04 38.1982 94.1868 40.4508C98.3335 42.7035 103.533 41.189 105.8 37.0682Z" fill="#FFB6B6"/>
<path d="M102.985 23.25H93.1976C92.48 23.2408 91.7855 23.5015 91.2532 23.9798C90.721 24.4582 90.3904 25.1188 90.3278 25.8292C90.3025 26.2068 90.3555 26.5854 90.4834 26.9418C90.6114 27.2981 90.8117 27.6246 91.0718 27.9009C91.3319 28.1772 91.6463 28.3975 91.9956 28.548C92.3449 28.6986 92.7216 28.7764 93.1023 28.7764C93.8398 28.7764 94.547 29.0675 95.0685 29.5857C95.5899 30.1039 95.8829 30.8067 95.8829 31.5396V42.8686H111.176V31.3894C111.176 30.3205 110.964 29.2621 110.552 28.2746C110.141 27.2871 109.538 26.3898 108.777 25.634C108.016 24.8782 107.113 24.2786 106.12 23.8696C105.126 23.4605 104.061 23.25 102.985 23.25Z" fill="#2F2E41"/>
<path d="M154.713 178H45.2872C45.211 178 45.138 177.947 45.0841 177.854C45.0303 177.76 45 177.633 45 177.5C45 177.367 45.0303 177.24 45.0841 177.146C45.138 177.053 45.211 177 45.2872 177H154.713C154.789 177 154.862 177.053 154.916 177.146C154.97 177.24 155 177.367 155 177.5C155 177.633 154.97 177.76 154.916 177.854C154.862 177.947 154.789 178 154.713 178Z" fill="#4DDAB1"/>
<path d="M133.01 176.045C125.375 170.476 114.666 155.705 132.912 141.168C140.547 146.672 151.256 161.352 133.01 176.045Z" fill="url(#paint0_radial_24_1512)"/>
<path d="M133.015 141.307L133.113 175.988C136.161 173.546 141.956 168.178 143.043 160.26C143.986 153.382 138.717 145.41 133.015 141.307Z" fill="#247E64" fill-opacity="0.34"/>
<g filter="url(#filter0_d_24_1512)">
<path d="M133.402 175.967C131.966 166.665 134.904 148.695 158.149 151.237C159.632 160.493 156.759 178.399 133.402 175.967Z" fill="url(#paint1_radial_24_1512)"/>
<path d="M158.124 151.407L133.516 176C137.408 176.414 145.326 176.691 151.728 171.855C157.289 167.655 159.236 158.315 158.124 151.407Z" fill="#247E64" fill-opacity="0.34"/>
</g>
<defs>
<filter id="filter0_d_24_1512" x="129.099" y="145.993" width="33.3733" height="33.2147" filterUnits="userSpaceOnUse" color-interpolation-filters="sRGB">
<feFlood flood-opacity="0" result="BackgroundImageFix"/>
<feColorMatrix in="SourceAlpha" type="matrix" values="0 0 0 0 0 0 0 0 0 0 0 0 0 0 0 0 0 0 127 0" result="hardAlpha"/>
<feOffset dy="-1"/>
<feGaussianBlur stdDeviation="2"/>
<feComposite in2="hardAlpha" operator="out"/>
<feColorMatrix type="matrix" values="0 0 0 0 0 0 0 0 0 0 0 0 0 0 0 0 0 0 0.1 0"/>
<feBlend mode="normal" in2="BackgroundImageFix" result="effect1_dropShadow_24_1512"/>
<feBlend mode="normal" in="SourceGraphic" in2="effect1_dropShadow_24_1512" result="shape"/>
</filter>
<radialGradient id="paint0_radial_24_1512" cx="0" cy="0" r="1" gradientUnits="userSpaceOnUse" gradientTransform="translate(134.981 172.178) rotate(-92.3316) scale(33.8299 32.8536)">
<stop stop-color="#098E67"/>
<stop offset="1" stop-color="#4DDAB1"/>
</radialGradient>
<radialGradient id="paint1_radial_24_1512" cx="0" cy="0" r="1" gradientUnits="userSpaceOnUse" gradientTransform="translate(137.547 174.618) rotate(-47.1381) scale(33.9275 32.7592)">
<stop stop-color="#098E67"/>
<stop offset="1" stop-color="#4DDAB1"/>
</radialGradient>
</defs>
</svg>
