<svg width="48" height="48" viewBox="0 0 48 48" fill="none" xmlns="http://www.w3.org/2000/svg">
<mask id="mask0_46_141" style="mask-type:luminance" maskUnits="userSpaceOnUse" x="2" y="2" width="44" height="44">
<path d="M18.284 43.171C14.9762 42.1831 11.9803 40.3559 9.58801 37.867C10.3577 36.9541 10.8375 35.8323 10.966 34.6452C11.0945 33.4581 10.8659 32.2597 10.3095 31.2032C9.75298 30.1468 8.89396 29.2804 7.8423 28.7149C6.79064 28.1494 5.59417 27.9106 4.40601 28.029C4.13472 26.7032 3.99869 25.3533 4.00001 24C4.00001 21.91 4.32001 19.894 4.91601 18H5.00001C6.01977 18.0003 7.02278 17.7407 7.91434 17.2457C8.80591 16.7507 9.5566 16.0367 10.0955 15.171C10.6345 14.3053 10.9439 13.3165 10.9945 12.298C11.0452 11.2795 10.8354 10.2649 10.385 9.34999C12.7303 7.16783 15.5655 5.58098 18.652 4.72299C19.1544 5.70939 19.9199 6.53759 20.8637 7.11594C21.8076 7.6943 22.893 8.00027 24 7.99999C25.107 8.00027 26.1924 7.6943 27.1363 7.11594C28.0802 6.53759 28.8456 5.70939 29.348 4.72299C32.4345 5.58098 35.2697 7.16783 37.615 9.34999C37.1613 10.2713 36.9517 11.2936 37.0062 12.3191C37.0608 13.3447 37.3776 14.339 37.9264 15.207C38.4752 16.075 39.2376 16.7877 40.1407 17.2767C41.0437 17.7657 42.0572 18.0148 43.084 18C43.6928 19.9417 44.0017 21.965 44 24C44 25.38 43.86 26.728 43.594 28.03C42.4058 27.9116 41.2094 28.1504 40.1577 28.7159C39.1061 29.2814 38.247 30.1478 37.6906 31.2042C37.1341 32.2607 36.9055 33.4591 37.034 34.6462C37.1625 35.8333 37.6423 36.9551 38.412 37.868C36.0196 40.3565 33.0238 42.1834 29.716 43.171C29.3276 41.9603 28.5647 40.9042 27.5374 40.1549C26.5102 39.4057 25.2715 39.0019 24 39.0019C22.7285 39.0019 21.4899 39.4057 20.4626 40.1549C19.4353 40.9042 18.6725 41.9603 18.284 43.171Z" fill="white" stroke="white" stroke-width="4" stroke-linejoin="round"/>
<path d="M24 31C24.9193 31 25.8295 30.8189 26.6788 30.4672C27.5281 30.1154 28.2997 29.5998 28.9497 28.9497C29.5998 28.2997 30.1154 27.5281 30.4672 26.6788C30.8189 25.8295 31 24.9193 31 24C31 23.0807 30.8189 22.1705 30.4672 21.3212C30.1154 20.4719 29.5998 19.7003 28.9497 19.0503C28.2997 18.4002 27.5281 17.8846 26.6788 17.5328C25.8295 17.1811 24.9193 17 24 17C22.1435 17 20.363 17.7375 19.0503 19.0503C17.7375 20.363 17 22.1435 17 24C17 25.8565 17.7375 27.637 19.0503 28.9497C20.363 30.2625 22.1435 31 24 31Z" fill="black" stroke="black" stroke-width="4" stroke-linejoin="round"/>
</mask>
<g mask="url(#mask0_46_141)">
<path d="M0 0H48V48H0V0Z" fill="black"/>
</g>
</svg>
